<svg width="249" height="51" viewBox="0 0 249 51" fill="none" xmlns="http://www.w3.org/2000/svg">
<path d="M51.3115 30.9517H47.0872V38.2597H39.375V10.708H51.8541C59.295 10.708 63.9843 14.6161 63.9843 20.908C63.9843 24.9724 62.0466 27.9425 58.6362 29.6229L64.5269 38.2988H56.2721L51.3115 30.9517ZM51.389 16.8436H47.0872V24.9333H51.389C54.6057 24.9333 56.1946 23.4482 56.1946 20.908C56.1946 18.3678 54.6057 16.8436 51.389 16.8436Z" fill="white"/>
<path d="M65.3408 38.6898H56.0784L51.1178 31.3817H47.5136V38.6898H38.9487V10.3174H51.8541C59.6051 10.3174 64.4107 14.3818 64.4107 20.9082C64.4107 24.8553 62.5892 27.9818 59.2563 29.7795L65.3408 38.6898ZM56.5047 37.8691H63.7906L58.0549 29.4668L58.4812 29.2714C61.8141 27.63 63.5968 24.7771 63.5968 20.9473C63.5968 14.9289 59.1013 11.1771 51.8541 11.1771H39.7626V37.9082H46.661V30.6001H51.5053L56.5047 37.8691ZM51.389 25.3633H46.6997V16.453H51.389C54.7607 16.453 56.5822 18.0553 56.5822 20.9082C56.6209 23.722 54.722 25.3633 51.389 25.3633ZM47.5136 24.5036H51.389C53.4043 24.5036 55.7684 23.8783 55.7684 20.9082C55.7684 17.899 53.3655 17.2737 51.389 17.2737H47.5136V24.5036Z" fill="white"/>
<path d="M89.4074 29.5054H74.0217C74.6418 31.6549 76.4633 32.9445 79.2149 32.9445C81.2689 32.9445 82.6641 32.3583 84.098 31.1077L88.0122 35.2112C85.997 37.4778 83.0129 38.6893 78.9824 38.6893C71.4639 38.6893 66.5808 33.9997 66.5808 27.6296C66.5808 21.2204 71.5414 16.6479 78.2073 16.6479C84.4468 16.6479 89.5237 20.6732 89.5237 27.7077C89.5237 28.2158 89.4462 28.9192 89.4074 29.5054ZM73.9055 25.5583H82.5866C82.199 23.3307 80.5713 21.8847 78.246 21.8847C75.9207 21.8847 74.3318 23.3307 73.9055 25.5583Z" fill="white"/>
<path d="M78.9824 39.0413C71.4252 39.0413 66.1545 34.3126 66.1545 27.5516C66.1545 20.947 71.2314 16.1401 78.2073 16.1401C85.2219 16.1401 89.95 20.7516 89.95 27.6298C89.95 28.0206 89.9113 28.4896 89.8725 28.9195C89.8725 29.1149 89.8338 29.3103 89.8338 29.5057L89.795 29.8965H74.6031C75.3007 31.5769 76.9284 32.5149 79.2149 32.5149C81.0752 32.5149 82.3928 32.0068 83.8268 30.7562L84.1368 30.4827L88.5548 35.1332L88.2836 35.4068C86.1908 37.8298 83.0517 39.0413 78.9824 39.0413ZM78.2073 16.9999C71.6965 16.9999 66.9684 21.4551 66.9684 27.5907C66.9684 33.8436 71.8903 38.2597 78.9824 38.2597C82.7029 38.2597 85.4545 37.2436 87.431 35.2114L84.0593 31.6551C82.5866 32.8666 81.1527 33.3746 79.2149 33.3746C76.3471 33.3746 74.3318 32.0068 73.6342 29.662L73.4792 29.1539H89.0199C89.0199 29.0758 89.0199 29.0367 89.0199 28.9585C89.0587 28.5286 89.0974 28.0987 89.0974 27.7079C89.1362 21.2597 84.7569 16.9999 78.2073 16.9999ZM83.0904 25.9884H73.4405L73.518 25.4804C73.983 23.0183 75.8045 21.4942 78.2461 21.4942C80.7264 21.4942 82.5478 23.0183 82.9741 25.4804L83.0904 25.9884ZM74.4481 25.1677H82.0828C81.579 23.37 80.1838 22.3148 78.2461 22.3148C76.3471 22.3148 74.9519 23.37 74.4481 25.1677Z" fill="white"/>
<path d="M116.691 27.6296C116.691 34.3905 112.04 38.6503 106.305 38.6503C103.863 38.6503 101.848 37.9078 100.414 36.4227V45.9583H93.0117V16.9216H100.065V19.0319C101.46 17.3515 103.553 16.5698 106.305 16.5698C112.04 16.5698 116.691 20.8296 116.691 27.6296ZM109.173 27.6296C109.173 24.3859 107.235 22.5492 104.716 22.5492C102.235 22.5492 100.259 24.3859 100.259 27.6296C100.259 30.8733 102.197 32.7101 104.716 32.7101C107.235 32.671 109.173 30.8342 109.173 27.6296Z" fill="white"/>
<path d="M100.801 46.3493H92.5854V16.5309H100.453V18.0551C101.887 16.8045 103.786 16.1792 106.305 16.1792C112.544 16.1792 117.117 20.9861 117.117 27.6298C117.117 34.2735 112.583 39.0804 106.305 39.0804C104.096 39.0804 102.235 38.4941 100.801 37.3608V46.3493ZM93.3993 45.4895H99.9876V35.3677L100.685 36.1102C102.042 37.5171 103.941 38.2206 106.305 38.2206C112.195 38.2206 116.265 33.8436 116.265 27.5907C116.265 21.3378 112.157 16.9608 106.305 16.9608C103.631 16.9608 101.693 17.7424 100.375 19.3056L99.6388 20.1654V17.3125H93.3993V45.4895ZM104.716 33.1011C101.809 33.1011 99.8714 30.9126 99.8714 27.6298C99.8714 24.347 101.809 22.1585 104.716 22.1585C107.622 22.1585 109.56 24.347 109.56 27.6298C109.599 30.9126 107.622 33.1011 104.716 33.1011ZM104.716 22.9401C102.274 22.9401 100.685 24.7769 100.685 27.5907C100.685 30.4436 102.274 32.2413 104.716 32.2413C107.157 32.2413 108.746 30.4045 108.746 27.5907C108.785 24.7769 107.196 22.9401 104.716 22.9401Z" fill="white"/>
<path d="M139.479 26.4181V38.2595H132.58V35.4848C131.534 37.517 129.402 38.6112 126.341 38.6112C121.264 38.6112 118.435 35.7193 118.435 32.0457C118.435 28.0986 121.303 25.6756 127.852 25.6756H132.077C131.96 23.5262 130.526 22.2756 127.581 22.2756C125.566 22.2756 123.279 22.979 121.845 24.1124L119.365 19.0319C121.768 17.4296 125.372 16.5698 128.705 16.5698C135.526 16.5698 139.479 19.6572 139.479 26.4181ZM132.038 31.4204V29.5836H128.821C126.457 29.5836 125.566 30.4434 125.566 31.7331C125.566 32.9836 126.573 33.8825 128.356 33.8825C130.023 33.9216 131.456 33.1399 132.038 31.4204Z" fill="white"/>
<path d="M126.302 39.0413C121.341 39.0413 118.009 36.2275 118.009 32.0459C118.009 28.9585 119.714 25.2459 127.814 25.2459H131.573C131.301 23.5263 129.984 22.6666 127.542 22.6666C125.566 22.6666 123.395 23.37 122.039 24.4252L121.652 24.7378L118.784 18.8758L119.094 18.6804C121.496 17.0781 125.062 16.1401 128.666 16.1401C135.991 16.1401 139.905 19.6965 139.905 26.3792V38.6505H132.193V36.8528C130.914 38.2988 128.937 39.0413 126.302 39.0413ZM127.852 26.1057C121.884 26.1057 118.861 28.0988 118.861 32.085C118.861 35.8367 121.807 38.2597 126.341 38.2597C129.247 38.2597 131.224 37.2827 132.232 35.3677L133.007 33.8827V37.908H139.091V26.4574C139.091 20.2045 135.603 17.039 128.666 17.039C125.449 17.039 122.117 17.8988 119.869 19.2666L122 23.5654C123.473 22.5493 125.643 21.924 127.581 21.924C131.456 21.924 132.387 23.9953 132.464 25.7148L132.503 26.1447H127.852V26.1057ZM128.395 34.3125C126.496 34.3125 125.217 33.2965 125.217 31.7332C125.217 30.5608 125.837 29.1539 128.86 29.1539H132.464V31.4988L132.425 31.5769C131.844 33.2965 130.333 34.3125 128.395 34.3125ZM128.86 29.9746C126.302 29.9746 126.031 30.9907 126.031 31.7332C126.031 32.8275 126.922 33.4919 128.395 33.4919C129.984 33.4919 131.146 32.7103 131.65 31.3424V29.9746H128.86Z" fill="white"/>
<path d="M143.354 10.5907C143.354 8.36311 145.137 6.60449 147.889 6.60449C150.64 6.60449 152.423 8.20679 152.423 10.4735C152.423 12.8183 150.64 14.5769 147.889 14.5769C145.137 14.5769 143.354 12.8574 143.354 10.5907ZM144.168 16.9217H151.57V38.2597H144.168V16.9217Z" fill="white"/>
<path d="M151.997 38.6897H143.781V16.5311H151.997V38.6897ZM144.556 37.869H151.144V17.3518H144.556V37.869ZM147.85 15.0069C144.982 15.0069 142.928 13.1702 142.928 10.6299C142.928 8.0897 145.021 6.25293 147.85 6.25293C150.756 6.25293 152.772 8.01155 152.772 10.5127C152.81 13.1311 150.756 15.0069 147.85 15.0069ZM147.85 7.03454C145.408 7.03454 143.742 8.51959 143.742 10.5909C143.742 12.7012 145.447 14.1472 147.85 14.1472C150.33 14.1472 151.958 12.6621 151.958 10.4736C151.997 8.40235 150.33 7.03454 147.85 7.03454Z" fill="white"/>
<path d="M170.56 16.5698V23.2917C169.901 23.2135 169.436 23.1744 168.894 23.1744C165.871 23.1744 163.817 24.6986 163.817 28.4503V38.2595H156.415V16.9216H163.468V19.4618C164.98 17.5859 167.421 16.5698 170.56 16.5698Z" fill="white"/>
<path d="M164.205 38.6896H155.989V16.5309H163.856V18.4459C165.445 16.9608 167.731 16.1792 170.56 16.1792H170.987V23.7999L170.522 23.7608C169.902 23.6827 169.436 23.6436 168.894 23.6436C165.794 23.6436 164.243 25.2849 164.243 28.4895V38.6896H164.205ZM156.802 37.8689H163.391V28.4895C163.391 24.816 165.328 22.7838 168.894 22.7838C169.32 22.7838 169.747 22.8229 170.173 22.862V16.9999C167.344 17.0781 165.135 18.016 163.778 19.7355L163.042 20.6735V17.3516H156.802V37.8689Z" fill="white"/>
<path d="M197.146 32.085V38.2597H172.653V33.3747L186.45 16.8827H173.002V10.708H196.565V15.5931L182.768 32.085H197.146Z" fill="#0051FF"/>
<path d="M197.534 38.6898H172.227V33.2576L185.558 17.3128H172.614V10.3174H196.952V15.7496L183.621 31.6944H197.534V38.6898ZM173.079 37.8691H196.759V32.5151H181.916L196.177 15.4369V11.099H173.467V16.453H187.38L173.118 33.5312V37.8691H173.079Z" fill="#0051FF"/>
<path d="M220.98 26.4181V38.2595H214.082V35.4848C213.036 37.517 210.904 38.6112 207.843 38.6112C202.766 38.6112 199.937 35.7193 199.937 32.0457C199.937 28.0986 202.804 25.6756 209.354 25.6756H213.578C213.462 23.5262 212.028 22.2756 209.083 22.2756C207.067 22.2756 204.781 22.979 203.347 24.1124L200.867 19.0319C203.269 17.4296 206.874 16.5698 210.207 16.5698C217.066 16.5698 220.98 19.6572 220.98 26.4181ZM213.578 31.4204V29.5836H210.362C207.998 29.5836 207.106 30.4434 207.106 31.7331C207.106 32.9836 208.114 33.8825 209.897 33.8825C211.524 33.9216 212.997 33.1399 213.578 31.4204Z" fill="#0051FF"/>
<path d="M207.843 39.0413C202.882 39.0413 199.549 36.2275 199.549 32.0459C199.549 28.9585 201.254 25.2459 209.354 25.2459H213.113C212.842 23.5263 211.524 22.6666 209.083 22.6666C207.106 22.6666 204.936 23.37 203.58 24.4252L203.192 24.7378L200.324 18.8758L200.634 18.6804C203.037 17.0781 206.602 16.1401 210.207 16.1401C217.531 16.1401 221.446 19.6965 221.446 26.3792V38.6505H213.733V36.8528C212.416 38.2988 210.478 39.0413 207.843 39.0413ZM209.354 26.1057C203.386 26.1057 200.363 28.0988 200.363 32.085C200.363 35.8367 203.308 38.2597 207.843 38.2597C210.749 38.2597 212.726 37.2827 213.733 35.3677L214.508 33.8827V37.908H220.593V26.4574C220.593 20.2045 217.105 17.039 210.168 17.039C206.951 17.039 203.618 17.8988 201.371 19.2666L203.502 23.5654C204.975 22.5493 207.106 21.924 209.083 21.924C212.958 21.924 213.888 23.9953 213.966 25.7148L214.005 26.1447H209.354V26.1057ZM209.897 34.3125C207.998 34.3125 206.719 33.2965 206.719 31.7332C206.719 30.5608 207.339 29.1539 210.362 29.1539H213.966V31.4988L213.927 31.5769C213.346 33.2965 211.834 34.3125 209.897 34.3125ZM210.362 29.9746C207.804 29.9746 207.533 30.9907 207.533 31.7332C207.533 32.8275 208.424 33.4919 209.897 33.4919C211.486 33.4919 212.648 32.7103 213.152 31.3424V29.9746H210.362Z" fill="#0051FF"/>
<path d="M248.574 27.6296C248.574 34.3905 243.923 38.6503 238.187 38.6503C235.746 38.6503 233.731 37.9078 232.297 36.4227V45.9583H224.856V16.9216H231.909V19.0319C233.304 17.3515 235.397 16.5698 238.149 16.5698C243.923 16.5698 248.574 20.8296 248.574 27.6296ZM241.055 27.6296C241.055 24.3859 239.117 22.5492 236.598 22.5492C234.118 22.5492 232.142 24.3859 232.142 27.6296C232.142 30.8733 234.079 32.7101 236.598 32.7101C239.117 32.671 241.055 30.8342 241.055 27.6296Z" fill="#0051FF"/>
<path d="M232.684 46.3493H224.468V16.5309H232.335V18.0551C233.769 16.8045 235.668 16.1792 238.187 16.1792C244.427 16.1792 249 20.9861 249 27.6298C249 34.2735 244.466 39.0804 238.187 39.0804C235.978 39.0804 234.118 38.4941 232.684 37.3608V46.3493ZM225.282 45.4895H231.87V35.3677L232.568 36.1102C233.924 37.5171 235.823 38.2206 238.187 38.2206C244.078 38.2206 248.147 33.8436 248.147 27.5907C248.147 21.3378 244.039 16.9608 238.187 16.9608C235.513 16.9608 233.576 17.7424 232.258 19.3056L231.522 20.1654V17.3125H225.282V45.4895ZM236.599 33.1011C233.692 33.1011 231.754 30.9126 231.754 27.6298C231.754 24.347 233.692 22.1585 236.599 22.1585C239.505 22.1585 241.443 24.347 241.443 27.6298C241.482 30.9126 239.505 33.1011 236.599 33.1011ZM236.599 22.9401C234.157 22.9401 232.568 24.7769 232.568 27.5907C232.568 30.4436 234.157 32.2413 236.599 32.2413C239.04 32.2413 240.629 30.4045 240.629 27.5907C240.668 24.7769 239.079 22.9401 236.599 22.9401Z" fill="#0051FF"/>
<path d="M15.6182 9.53563C15.1919 9.53563 14.7268 9.57471 14.3005 9.57471L14.068 0L11.3164 10.1218C4.76685 11.9977 0 18.0943 0 25.2851C0 34 6.97588 41.0345 15.6182 41.0345C15.7345 41.0345 15.812 41.0345 15.8895 41.0345L14.6493 51L18.6023 40.7218C25.8107 39.3149 31.2364 32.9448 31.2364 25.246C31.2364 16.6092 24.2605 9.53563 15.6182 9.53563ZM17.7497 40.9172L16.1995 44.9425L16.7033 41.0345L18.4861 26.7701L7.16965 28.4115L12.2078 9.96552L13.4867 5.27586L13.603 9.73103L13.913 21.9632L25.7332 20.2437L17.7497 40.9172Z" fill="url(#paint0_linear_2_12940)"/>
<defs>
<linearGradient id="paint0_linear_2_12940" x1="2.81515" y1="24.491" x2="30.0619" y2="26.8751" gradientUnits="userSpaceOnUse">
<stop stop-color="#0051FF"/>
<stop offset="0.079649" stop-color="#0065FF"/>
<stop offset="0.3115" stop-color="#009CFF"/>
<stop offset="0.5276" stop-color="#00C7FF"/>
<stop offset="0.7211" stop-color="#00E5FF"/>
<stop offset="0.8851" stop-color="#00F8FF"/>
<stop offset="1" stop-color="#00FFFF"/>
</linearGradient>
</defs>
</svg>
