<svg width="252" height="52" viewBox="0 0 252 52" fill="none" xmlns="http://www.w3.org/2000/svg">
<path d="M51.8266 31.4606H47.5599V38.7805H39.7703V11.184H52.3746C59.8903 11.184 64.6267 15.0984 64.6267 21.4006C64.6267 25.4716 62.6695 28.4465 59.2248 30.1297L65.1747 38.8197H56.7979L51.8266 31.4606ZM51.9049 17.3296H47.5599V25.4324H51.9049C55.1538 25.4324 56.7587 23.945 56.7587 21.4006C56.7587 18.8562 55.1538 17.3296 51.9049 17.3296Z" fill="#333333"/>
<path d="M65.9966 39.2111H56.6412L51.6308 31.8912H47.9904V39.2111H39.3396V10.7926H52.3745C60.2033 10.7926 65.0572 14.8636 65.0572 21.4006C65.0572 25.3542 63.2174 28.4857 59.851 30.2863L65.9966 39.2111ZM57.0718 38.3891H64.4309L58.6376 29.9731L59.0682 29.7774C62.4345 28.1334 64.2352 25.2759 64.2352 21.4398C64.2352 15.4116 59.6945 11.6538 52.3745 11.6538H40.1616V38.4282H47.1293V31.03H52.0614L57.0718 38.3891ZM51.9048 25.8239H47.1684V16.9382H51.9048C55.3103 16.9382 57.1501 18.5431 57.1501 21.4006C57.1893 24.219 55.2712 25.8239 51.9048 25.8239ZM47.9904 25.0019H51.9048C53.9403 25.0019 56.3281 24.3756 56.3281 21.4006C56.3281 18.3865 53.9012 17.7602 51.9048 17.7602H47.9904V25.0019Z" fill="#333333"/>
<path d="M90.3442 30.0123H74.8041C75.4304 32.1652 77.2701 33.457 80.0493 33.457C82.124 33.457 83.5332 32.8698 84.9815 31.6172L88.8959 35.6882C86.8604 37.9585 83.8463 39.172 79.7753 39.172C72.1814 39.172 67.2493 34.4747 67.2493 28.0942C67.2493 21.6746 72.2597 17.0948 78.9925 17.0948C85.2946 17.0948 90.4225 21.1266 90.4225 28.1725C90.4616 28.6814 90.3834 29.4251 90.3442 30.0123ZM74.6866 26.0588H83.4549C83.0634 23.8276 81.4194 22.3792 79.0707 22.3792C76.7221 22.3792 75.1172 23.7884 74.6866 26.0588Z" fill="#333333"/>
<path d="M79.8146 39.5634C72.1815 39.5634 66.8579 34.827 66.8579 28.0551C66.8579 21.4398 71.9858 16.6251 79.0317 16.6251C86.1167 16.6251 90.8923 21.244 90.8923 28.1334C90.8923 28.5248 90.8532 28.9946 90.814 29.4251C90.814 29.6209 90.7749 29.8166 90.7749 30.0123L90.7357 30.4037H75.3913C76.0959 32.0869 77.7399 33.0264 80.0494 33.0264C81.9283 33.0264 83.2592 32.5175 84.7076 31.2649L85.0207 30.9909L89.4831 35.6882L89.2091 35.9622C87.0562 38.35 83.8855 39.5634 79.8146 39.5634ZM78.9925 17.4862C72.4164 17.4862 67.6408 21.9486 67.6408 28.0942C67.6408 34.3573 72.6121 38.7805 79.7754 38.7805C83.5332 38.7805 86.3125 37.7628 88.3088 35.7273L84.9033 32.1652C83.4158 33.3787 81.9675 33.8876 80.0103 33.8876C77.1136 33.8876 75.0781 32.5175 74.3736 30.1689L74.217 29.66H89.9137C89.9137 29.5817 89.9137 29.5426 89.9137 29.4643C89.9529 29.0337 89.992 28.6031 89.992 28.2117C90.0311 21.7529 85.6079 17.4862 78.9925 17.4862ZM83.9247 26.4502H74.1778L74.2561 25.9413C74.7258 23.4753 76.5656 21.9486 79.0317 21.9486C81.5369 21.9486 83.3767 23.4753 83.8073 25.9413L83.9247 26.4502ZM75.1956 25.6282H82.9069C82.3981 23.8276 80.9889 22.7707 79.0317 22.7707C77.1136 22.8098 75.7044 23.8667 75.1956 25.6282Z" fill="#333333"/>
<path d="M117.863 28.0942C117.863 34.8661 113.165 39.1328 107.372 39.1328C104.906 39.1328 102.87 38.3891 101.422 36.9016V46.4527H93.9456V17.4079H101.07V19.5217C102.479 17.8385 104.593 17.0556 107.372 17.0556C113.165 17.0556 117.863 21.3223 117.863 28.0942ZM110.269 28.0942C110.269 24.8453 108.311 23.0055 105.767 23.0055C103.262 23.0055 101.265 24.8453 101.265 28.0942C101.265 31.3432 103.223 33.1829 105.767 33.1829C108.311 33.1829 110.269 31.3432 110.269 28.0942Z" fill="#333333"/>
<path d="M101.813 46.8442H93.5149V17.0165H101.461V18.5431C102.909 17.2905 104.827 16.6642 107.372 16.6642C113.674 16.6642 118.293 21.4789 118.293 28.1334C118.293 34.7878 113.713 39.6026 107.372 39.6026C105.141 39.6026 103.262 39.0154 101.813 37.8802V46.8442ZM94.3369 46.0222H100.991V35.8839L101.696 36.6276C103.066 38.0368 104.984 38.7414 107.372 38.7414C113.322 38.7414 117.432 34.3573 117.432 28.0942C117.432 21.8312 113.283 17.4471 107.372 17.4471C104.671 17.4471 102.714 18.2299 101.383 19.7957L100.639 20.6569V17.7994H94.3369V46.0222ZM105.767 33.6135C102.831 33.6135 100.874 31.4215 100.874 28.1334C100.874 24.8453 102.831 22.6532 105.767 22.6532C108.703 22.6532 110.66 24.8453 110.66 28.1334C110.699 31.3823 108.703 33.6135 105.767 33.6135ZM105.767 23.4361C103.301 23.4361 101.696 25.2759 101.696 28.0942C101.696 30.9517 103.301 32.7524 105.767 32.7524C108.233 32.7524 109.838 30.9126 109.838 28.0942C109.877 25.2759 108.272 23.4361 105.767 23.4361Z" fill="#333333"/>
<path d="M140.879 26.9199V38.7805H133.912V36.0013C132.855 38.0368 130.702 39.1328 127.609 39.1328C122.482 39.1328 119.624 36.2361 119.624 32.5566C119.624 28.6031 122.521 26.1761 129.136 26.1761H133.403C133.285 24.0232 131.837 22.7706 128.862 22.7706C126.827 22.7706 124.517 23.4752 123.069 24.6104L120.563 19.5217C122.99 17.9168 126.631 17.0556 129.997 17.0556C136.887 17.0556 140.879 20.148 140.879 26.9199ZM133.403 31.9303V30.0905H130.154C127.766 30.0905 126.866 30.9517 126.866 32.2435C126.866 33.4961 127.883 34.3964 129.684 34.3964C131.328 34.4355 132.816 33.6135 133.403 31.9303Z" fill="#333333"/>
<path d="M127.609 39.5634C122.599 39.5634 119.233 36.7451 119.233 32.5567C119.233 29.4643 120.955 25.7456 129.136 25.7456H132.933C132.659 24.0233 131.328 23.1621 128.862 23.1621C126.866 23.1621 124.674 23.8667 123.304 24.9236L122.912 25.2367L120.016 19.3651L120.329 19.1694C122.756 17.5645 126.357 16.6251 129.997 16.6251C137.395 16.6251 141.349 20.1872 141.349 26.8808V39.2111H133.481V37.3714C132.228 38.8197 130.232 39.5634 127.609 39.5634ZM129.136 26.5676C123.108 26.5676 120.055 28.564 120.055 32.5567C120.055 36.3145 123.03 38.7414 127.609 38.7414C130.545 38.7414 132.542 37.7628 133.559 35.8447L134.342 34.3573V38.3891H140.488V26.9199C140.488 20.6569 136.965 17.4862 129.958 17.4862C126.709 17.4862 123.343 18.3474 121.072 19.7174L123.225 24.0233C124.713 23.0055 126.905 22.3792 128.862 22.3792C132.776 22.3792 133.716 24.4539 133.794 26.1762L133.833 26.6068H129.136V26.5676ZM129.684 34.827C127.766 34.827 126.474 33.8093 126.474 32.2435C126.474 31.0692 127.101 29.66 130.154 29.66H133.794V32.0086L133.755 32.0869C133.168 33.8093 131.641 34.827 129.684 34.827ZM130.154 30.482C127.57 30.482 127.296 31.4998 127.296 32.2435C127.296 33.3395 128.197 34.005 129.684 34.005C131.289 34.005 132.463 33.2221 132.972 31.8521V30.482H130.154Z" fill="#333333"/>
<path d="M144.793 11.0666C144.793 8.83539 146.594 7.07391 149.373 7.07391C152.153 7.07391 153.953 8.67882 153.953 10.9492C153.953 13.2978 152.153 15.0593 149.373 15.0593C146.594 15.0593 144.793 13.2978 144.793 11.0666ZM145.615 17.4079H153.092V38.7805H145.615V17.4079Z" fill="#333333"/>
<path d="M153.523 39.2111H145.224V17.0164H153.523V39.2111ZM146.007 38.389H152.661V17.8385H146.007V38.389ZM149.373 15.4507C146.477 15.4507 144.402 13.6109 144.402 11.0666C144.402 8.5222 146.516 6.68243 149.373 6.68243C152.309 6.68243 154.345 8.44391 154.345 10.9491C154.345 13.6109 152.309 15.4507 149.373 15.4507ZM149.373 7.50446C146.907 7.50446 145.224 8.99193 145.224 11.0666C145.224 13.1412 146.946 14.6287 149.373 14.6287C151.879 14.6287 153.523 13.1412 153.523 10.9491C153.523 8.8745 151.839 7.50446 149.373 7.50446Z" fill="#333333"/>
<path d="M172.273 17.0556V23.7884C171.607 23.7101 171.137 23.6709 170.589 23.6709C167.536 23.6709 165.462 25.1975 165.462 28.9554V38.7805H157.985V17.4079H165.109V19.9523C166.636 18.0342 169.102 17.0556 172.273 17.0556Z" fill="#333333"/>
<path d="M165.853 39.2111H157.554V17.0165H165.501V18.9345C167.106 17.4471 169.415 16.6642 172.273 16.6642H172.703V24.2973L172.233 24.2581C171.607 24.1798 171.137 24.1407 170.589 24.1407C167.458 24.1407 165.892 25.7847 165.892 28.9945V39.2111H165.853ZM158.376 38.3891H165.031V28.9945C165.031 25.315 166.988 23.2795 170.589 23.2795C171.02 23.2795 171.451 23.3187 171.881 23.3578V17.4862C169.024 17.5645 166.792 18.504 165.422 20.2263L164.679 21.1657V17.8385H158.376V38.3891Z" fill="#333333"/>
<path d="M199.125 32.5958V38.7805H174.386V33.8875L188.322 17.3688H174.739V11.184H198.538V16.077L184.603 32.5958H199.125Z" fill="#0051FF"/>
<path d="M199.556 39.2111H173.995V33.7701L187.46 17.7994H174.386V10.7926H199.008V16.2336L185.542 32.2044H199.595V39.2111H199.556ZM174.817 38.3891H198.734V33.0264H183.742L198.147 15.9205V11.6146H175.208V16.9773H189.261L174.856 34.0833V38.3891H174.817Z" fill="#0051FF"/>
<path d="M223.238 26.9199V38.7805H216.27V36.0013C215.214 38.0368 213.061 39.1328 209.968 39.1328C204.84 39.1328 201.983 36.2361 201.983 32.5566C201.983 28.6031 204.88 26.1761 211.495 26.1761H215.762C215.644 24.0232 214.196 22.7706 211.221 22.7706C209.185 22.7706 206.876 23.4752 205.428 24.6104L202.922 19.5217C205.349 17.9168 208.99 17.0556 212.356 17.0556C219.245 17.0556 223.238 20.148 223.238 26.9199ZM215.722 31.9303V30.0905H212.473C210.086 30.0905 209.185 30.9517 209.185 32.2435C209.185 33.4961 210.203 34.3964 212.004 34.3964C213.687 34.4355 215.135 33.6135 215.722 31.9303Z" fill="#0051FF"/>
<path d="M209.929 39.5634C204.919 39.5634 201.552 36.7451 201.552 32.5567C201.552 29.4643 203.275 25.7456 211.456 25.7456H215.253C214.979 24.0233 213.648 23.1621 211.182 23.1621C209.185 23.1621 206.993 23.8667 205.623 24.9236L205.232 25.2367L202.335 19.3651L202.648 19.1694C205.075 17.5645 208.676 16.6251 212.317 16.6251C219.715 16.6251 223.669 20.1872 223.669 26.8808V39.2111H215.879V37.3714C214.548 38.8197 212.591 39.5634 209.929 39.5634ZM211.456 26.5676C205.427 26.5676 202.374 28.564 202.374 32.5567C202.374 36.3145 205.349 38.7414 209.929 38.7414C212.865 38.7414 214.861 37.7628 215.879 35.8447L216.662 34.3573V38.3891H222.807V26.9199C222.807 20.6569 219.284 17.4862 212.278 17.4862C209.029 17.4862 205.662 18.3474 203.392 19.7174L205.545 24.0233C207.032 23.0055 209.185 22.3792 211.182 22.3792C215.096 22.3792 216.035 24.4539 216.114 26.1762L216.153 26.6068H211.456V26.5676ZM212.004 34.827C210.086 34.827 208.794 33.8093 208.794 32.2435C208.794 31.0692 209.42 29.66 212.473 29.66H216.114V32.0086L216.075 32.0869C215.527 33.8093 213.961 34.827 212.004 34.827ZM212.473 30.482C209.89 30.482 209.616 31.4998 209.616 32.2435C209.616 33.3395 210.516 34.005 212.004 34.005C213.609 34.005 214.783 33.2221 215.292 31.8521V30.482H212.473Z" fill="#0051FF"/>
<path d="M251.069 28.0942C251.069 34.8661 246.372 39.1328 240.579 39.1328C238.113 39.1328 236.077 38.3891 234.629 36.9016V46.4527H227.152V17.4079H234.277V19.5217C235.686 17.8385 237.799 17.0556 240.579 17.0556C246.372 17.0556 251.069 21.3223 251.069 28.0942ZM243.475 28.0942C243.475 24.8453 241.518 23.0055 238.974 23.0055C236.429 23.0055 234.472 24.8453 234.472 28.0942C234.472 31.3432 236.429 33.1829 238.974 33.1829C241.518 33.1829 243.475 31.3432 243.475 28.0942Z" fill="#0051FF"/>
<path d="M235.02 46.8442H226.722V17.0165H234.668V18.5431C236.116 17.2905 238.035 16.6642 240.579 16.6642C246.881 16.6642 251.5 21.4789 251.5 28.1334C251.5 34.7878 246.92 39.6026 240.579 39.6026C238.348 39.6026 236.469 39.0154 235.02 37.8802V46.8442ZM227.544 46.0222H234.198V35.8839L234.903 36.6276C236.273 38.0368 238.191 38.7414 240.579 38.7414C246.529 38.7414 250.639 34.3573 250.639 28.0942C250.639 21.8312 246.49 17.4471 240.579 17.4471C237.878 17.4471 235.921 18.2299 234.59 19.7957L233.846 20.6569V17.7994H227.544V46.0222ZM239.013 33.6135C236.077 33.6135 234.12 31.4215 234.12 28.1334C234.12 24.8453 236.077 22.6532 239.013 22.6532C241.949 22.6532 243.906 24.8453 243.906 28.1334C243.906 31.3823 241.949 33.6135 239.013 33.6135ZM239.013 23.4361C236.547 23.4361 234.942 25.2759 234.942 28.0942C234.942 30.9517 236.547 32.7524 239.013 32.7524C241.479 32.7524 243.084 30.9126 243.084 28.0942C243.084 25.2759 241.479 23.4361 239.013 23.4361Z" fill="#0051FF"/>
<path d="M15.775 10.0097C15.3444 10.0097 14.8747 10.0488 14.4441 10.0488L14.2093 0.458557L11.43 10.5968C4.81471 12.5149 0 18.5822 0 25.7847C0 34.5138 7.04591 41.5597 15.775 41.5597C15.8925 41.5597 15.9707 41.5597 16.049 41.5597L14.7964 51.5414L18.7891 41.2857C26.0699 39.8765 31.55 33.4961 31.55 25.7847C31.5892 17.0556 24.5041 10.0097 15.775 10.0097ZM17.9279 41.4423L16.3622 45.4741L16.871 41.5597L18.6717 27.2722L7.24163 28.9162L12.3303 10.4403L13.6221 5.74299L13.7004 10.1271L14.0135 22.3792L25.9525 20.6568L17.9279 41.4423Z" fill="url(#paint0_linear_1_41548)"/>
<defs>
<linearGradient id="paint0_linear_1_41548" x1="2.85078" y1="24.9818" x2="30.3676" y2="27.4098" gradientUnits="userSpaceOnUse">
<stop stop-color="#0051FF"/>
<stop offset="0.079649" stop-color="#0065FF"/>
<stop offset="0.3115" stop-color="#009CFF"/>
<stop offset="0.5276" stop-color="#00C7FF"/>
<stop offset="0.7211" stop-color="#00E5FF"/>
<stop offset="0.8851" stop-color="#00F8FF"/>
<stop offset="1" stop-color="#00FFFF"/>
</linearGradient>
</defs>
</svg>
