<svg width="307" height="277" viewBox="0 0 307 277" fill="none" xmlns="http://www.w3.org/2000/svg">
<g clip-path="url(#clip0_208_12230)">
<path opacity="0.22" d="M85.4994 149.314C80.5199 161.784 38.4895 164.395 26.9852 141.48C22.7399 133.024 22.1216 120.037 27.9388 113.58C37.8271 102.606 64.5765 112.434 77.9922 130.129C81.5423 134.812 87.9276 143.233 85.4994 149.314Z" fill="url(#paint0_linear_208_12230)"/>
<path d="M42.9596 274.488H248.531M259.729 274.117H282.064M26.1641 274.117H34.8761" stroke="#0B1643" stroke-width="38.09" stroke-miterlimit="10" stroke-linecap="round"/>
<path d="M238.871 30.8412L240.93 33.0604L231.468 40.9239C231.224 41.1263 230.935 41.2491 230.631 41.2783C230.328 41.3076 230.023 41.242 229.752 41.0892C229.481 40.9363 229.254 40.7023 229.097 40.4138C228.94 40.1252 228.859 39.7937 228.864 39.4569L229.069 25.1503L217.257 17.289C216.994 17.1137 216.784 16.8557 216.653 16.5478C216.523 16.2399 216.479 15.8961 216.525 15.5601C216.572 15.224 216.708 14.911 216.917 14.6609C217.125 14.4108 217.395 14.2348 217.694 14.1554L268.541 0.654297L238.871 30.8412Z" fill="url(#paint1_linear_208_12230)"/>
<path d="M229.063 25.1493L268.542 0.643066L240.928 33.0593L231.338 41.0284C231.107 41.2207 230.831 41.3372 230.543 41.3648C230.254 41.3924 229.964 41.3299 229.706 41.1845C229.448 41.039 229.232 40.8164 229.083 40.5419C228.933 40.2675 228.857 39.9521 228.861 39.6318L229.063 25.1493Z" fill="#A1BFF1"/>
<path d="M268.541 0.648682L254.934 41.4549C254.851 41.7021 254.718 41.9249 254.545 42.1059C254.372 42.287 254.164 42.4215 253.937 42.499C253.709 42.5765 253.468 42.5949 253.233 42.5527C252.998 42.5106 252.775 42.409 252.581 42.2559L240.93 33.0593L240.043 32.1029C239.893 31.9404 239.773 31.7456 239.693 31.5304C239.612 31.3152 239.572 31.0841 239.575 30.8513C239.578 30.6184 239.624 30.3887 239.71 30.1761C239.796 29.9635 239.92 29.7725 240.075 29.6148L268.541 0.648682Z" fill="url(#paint2_linear_208_12230)"/>
<path d="M231.296 153.234V189.834H88.2715V152.879C88.2715 139.321 98.5801 127.97 111.984 125.853H203.042C213.618 125.853 222.882 131.558 227.722 139.946C229.997 143.89 231.296 148.424 231.296 153.234Z" fill="#0051FF"/>
<path d="M141.269 152.879V189.834H88.2715V152.879C88.2715 141.177 95.9479 131.123 106.669 127.224C108.401 126.597 110.179 126.138 111.984 125.853C112.897 125.697 113.829 125.597 114.77 125.542C115.711 125.597 116.642 125.697 117.561 125.853C120.375 126.293 123.12 127.164 125.717 128.441C134.927 132.964 141.269 142.243 141.269 152.879Z" fill="#0B1643"/>
<path opacity="0.71" d="M143.077 152.443V189.834H141.268V152.879C141.268 139.321 130.963 127.97 117.56 125.853C116.637 125.697 115.714 125.597 114.768 125.542C113.827 125.597 112.896 125.697 111.982 125.853C110.178 126.139 108.4 126.599 106.668 127.227C108.958 126.205 111.35 125.493 113.793 125.105C114.707 124.95 115.639 124.845 116.579 124.79C117.52 124.845 118.45 124.95 119.37 125.105C132.774 127.244 143.077 138.73 143.077 152.443Z" fill="#0051FF"/>
<path d="M141.269 152.879V189.834H134.483V152.879C134.483 139.526 124.491 128.315 111.382 125.952C111.581 125.917 111.78 125.882 111.984 125.853C112.898 125.697 113.83 125.597 114.77 125.542C115.712 125.597 116.643 125.697 117.562 125.853C130.964 127.97 141.269 139.321 141.269 152.879Z" fill="#0B1643"/>
<path d="M141.273 189.834L126.662 212.821C126.389 213.252 126.104 213.672 125.807 214.083C123.612 217.127 120.825 219.586 117.653 221.275C114.482 222.964 111.007 223.841 107.487 223.84H66.6582L86.7833 192.175L88.2712 189.832L141.273 189.834Z" fill="#0B1643"/>
<path d="M177.926 189.834H192.894V273.287H177.926V189.834ZM199.207 274.116H171.613H199.207Z" fill="#0B1643"/>
<path d="M197.566 151.794C203.052 151.794 207.499 146.874 207.499 140.804C207.499 134.734 203.052 129.813 197.566 129.813C192.08 129.813 187.632 134.734 187.632 140.804C187.632 146.874 192.08 151.794 197.566 151.794Z" fill="url(#paint3_linear_208_12230)"/>
<path d="M192.894 189.834V205.509L177.926 201.401V189.834H192.894Z" fill="#0B1643"/>
<path opacity="0.71" d="M141.269 168.163H231.295V189.834H141.269V168.163Z" fill="#0051FF"/>
<path d="M141.273 189.834L126.662 212.821C126.389 213.252 126.104 213.672 125.807 214.083C122.536 207.076 119.75 198.533 113.015 197.692C107.272 196.972 104.709 202.611 98.5398 201.862C93.6731 201.27 89.7775 197.096 86.7832 192.177L88.2711 189.834H141.273Z" fill="#0B1643"/>
<path opacity="0.43" d="M156.021 181.929C157.483 181.929 158.668 180.617 158.668 178.999C158.668 177.382 157.483 176.07 156.021 176.07C154.558 176.07 153.373 177.382 153.373 178.999C153.373 180.617 154.558 181.929 156.021 181.929Z" fill="#00FFFF"/>
<path opacity="0.43" d="M166.61 181.929C168.072 181.929 169.258 180.617 169.258 178.999C169.258 177.382 168.072 176.07 166.61 176.07C165.148 176.07 163.962 177.382 163.962 178.999C163.962 180.617 165.148 181.929 166.61 181.929Z" fill="#00FFFF"/>
<path opacity="0.43" d="M177.466 181.929C178.928 181.929 180.113 180.617 180.113 178.999C180.113 177.382 178.928 176.07 177.466 176.07C176.003 176.07 174.818 177.382 174.818 178.999C174.818 180.617 176.003 181.929 177.466 181.929Z" fill="#00FFFF"/>
<path opacity="0.57" d="M125.717 128.441L125.229 130.128C123.017 130.173 112.957 130.648 105.778 139.387C99.4087 147.139 97.6398 158.575 100.123 167.164C102.191 174.3 106.217 176.093 105.552 181.427C105.136 184.761 103.114 187.698 100.577 189.835H88.2715V152.879C88.2715 141.177 95.9479 131.123 106.669 127.224C108.401 126.597 110.179 126.138 111.984 125.853C112.897 125.697 113.829 125.597 114.77 125.542C115.711 125.597 116.642 125.697 117.561 125.853C120.375 126.293 123.12 127.164 125.717 128.441Z" fill="#0B1643"/>
<path d="M131.761 132.43C128.006 129.492 123.455 127.455 118.47 126.679C117.552 126.527 116.622 126.426 115.679 126.373C114.738 126.428 113.807 126.529 112.893 126.679C111.089 126.961 109.311 127.416 107.578 128.04C96.8572 131.888 89.1808 141.813 89.1808 153.36V189.84H88.2764V152.879C88.2764 141.177 95.9528 131.123 106.674 127.224C108.406 126.597 110.184 126.138 111.988 125.853C112.902 125.697 113.834 125.597 114.775 125.542C115.716 125.597 116.647 125.697 117.566 125.853C122.948 126.704 127.839 129.042 131.761 132.43Z" fill="url(#paint4_linear_208_12230)"/>
<path d="M197.566 95.5422V138.969" stroke="#0B1643" stroke-width="53.42" stroke-miterlimit="10" stroke-linecap="round"/>
<path d="M165.712 103.384L174.133 109.596C175.178 110.368 176.418 110.753 177.674 110.697C178.931 110.641 180.138 110.146 181.124 109.283L183.195 107.467C184.561 106.271 186.229 105.574 187.969 105.472C189.709 105.371 191.435 105.87 192.907 106.9L200.544 112.243V88.7292L192.403 85.4696C191.087 84.9422 189.672 84.7867 188.288 85.0173C186.903 85.248 185.593 85.8574 184.475 86.7903L181.489 89.2863C180.509 90.1047 179.324 90.5675 178.097 90.6112C176.87 90.6549 175.661 90.2773 174.635 89.5302L165.714 83.0349L165.712 103.384Z" fill="#00FFFF"/>
<path d="M41.9605 41.4661C32.2251 41.8984 24.3559 50.8284 24.197 61.6066C24.1224 66.1036 25.3908 70.5023 27.8054 74.1207L25.3208 82.4505H42.2999C52.5789 82.4505 61.3412 73.1472 61.2561 61.7757C61.2352 59.0266 60.7149 56.3104 59.7259 53.7884C58.7369 51.2664 57.2996 48.9903 55.4993 47.0955C53.6991 45.2007 51.5728 43.7259 49.2469 42.7588C46.921 41.7917 44.4431 41.3521 41.9605 41.4661Z" fill="#0B1643"/>
<path d="M61.5074 41.4662C71.2429 41.8985 79.1121 50.8285 79.271 61.6067C79.3455 66.1037 78.0771 70.5024 75.6625 74.1208L78.1502 82.4517H61.1711C50.8922 82.4517 42.1299 73.1485 42.215 61.7769C42.2357 59.0281 42.7559 56.312 43.7446 53.7901C44.7333 51.2683 46.1704 48.9922 47.9703 47.0973C49.7702 45.2024 51.8962 43.7274 54.2217 42.76C56.5473 41.7926 59.025 41.3526 61.5074 41.4662Z" fill="#0051FF"/>
<path d="M69.2783 69.7153H65.0259C65.0105 70.6878 64.6505 71.6148 64.0234 72.2966C63.3964 72.9784 62.5524 73.3604 61.6732 73.3604C60.7941 73.3604 59.9501 72.9784 59.323 72.2966C58.6959 71.6148 58.336 70.6878 58.3206 69.7153H54.0189C53.9381 69.715 53.8589 69.6909 53.7895 69.6453C53.72 69.5998 53.6628 69.5344 53.6239 69.4562C53.585 69.3779 53.5657 69.2895 53.5681 69.2002C53.5704 69.1109 53.5944 69.0239 53.6374 68.9483L55.6011 65.5118V59.0449C55.6011 57.3036 56.2263 55.6336 57.3392 54.4023C58.4521 53.171 59.9615 52.4792 61.5353 52.4792C63.1079 52.4801 64.6159 53.1717 65.728 54.4019C66.8401 55.6321 67.4653 57.3004 67.4664 59.0403V65.497L69.6424 68.9245C69.6904 68.999 69.719 69.0866 69.7251 69.1779C69.7313 69.2691 69.7147 69.3605 69.6771 69.442C69.6396 69.5236 69.5826 69.5922 69.5122 69.6403C69.4419 69.6885 69.361 69.7144 69.2783 69.7153Z" fill="white"/>
<path d="M278.837 228.917C276.873 231.261 274.147 232.646 271.26 232.768C268.373 232.889 265.56 231.736 263.441 229.562C265.405 227.218 268.131 225.833 271.018 225.712C273.906 225.591 276.718 226.744 278.837 228.917Z" fill="url(#paint5_linear_208_12230)"/>
<path d="M261.96 249.057C259.841 246.884 258.589 243.869 258.48 240.674C258.37 237.48 259.412 234.368 261.377 232.024C263.496 234.197 264.748 237.212 264.857 240.407C264.966 243.601 263.924 246.713 261.96 249.057Z" fill="#00FFFF"/>
<path d="M261.588 227.663C259.469 225.489 258.217 222.474 258.107 219.279C257.998 216.085 259.04 212.973 261.004 210.629C263.123 212.802 264.375 215.818 264.484 219.012C264.594 222.207 263.552 225.318 261.588 227.663Z" fill="#0B1643"/>
<path d="M259.527 230.119C257.563 232.464 254.838 233.849 251.951 233.97C249.064 234.091 246.251 232.938 244.132 230.766C246.096 228.421 248.822 227.036 251.709 226.915C254.596 226.794 257.409 227.947 259.528 230.12L259.527 230.119Z" fill="url(#paint6_linear_208_12230)"/>
<path d="M102.108 144.812L102.379 174.297C102.404 177.228 101.377 180.051 99.5218 182.145C97.6669 184.239 95.1365 185.432 92.4867 185.463L45.5516 185.989L45.2809 156.509C45.266 155.06 45.5097 153.621 45.998 152.276C46.4863 150.931 47.2096 149.706 48.1265 148.671C48.2403 148.542 48.3572 148.414 48.4803 148.292C48.4938 148.277 48.5086 148.264 48.5244 148.252C48.5279 148.243 48.534 148.237 48.5418 148.233C50.3525 146.396 52.7139 145.367 55.1702 145.344L102.108 144.812Z" fill="url(#paint7_linear_208_12230)"/>
<path d="M90.4044 193.99C90.4044 194.033 90.389 194.075 90.3839 194.113C90.3812 194.097 90.3812 194.08 90.3839 194.064L90.4044 193.99Z" fill="#98CFF4"/>
<path opacity="0.36" d="M98.8557 182.832C97.0791 184.51 94.8248 185.442 92.4888 185.464L45.5537 185.991L73.8372 165.406L98.8557 182.832Z" fill="url(#paint8_linear_208_12230)"/>
<path d="M101.114 145.536L77.8233 168.184L76.0237 169.94L75.8802 170.078C75.3291 170.615 74.6222 170.915 73.8882 170.923C73.1542 170.931 72.4419 170.648 71.881 170.124L71.6759 169.926L69.906 168.279L48.4878 148.296C50.3065 146.423 52.693 145.371 55.1777 145.346L99.34 144.851C99.9858 144.841 100.614 145.083 101.114 145.536Z" fill="url(#paint9_linear_208_12230)"/>
<path opacity="0.66" d="M101.857 144.82L77.22 176.599C75.8869 178.414 72.0272 178.451 70.6572 176.672L48.5264 148.252C48.5299 148.244 48.5361 148.237 48.5438 148.233L71.6704 169.922C72.1546 170.375 72.7443 170.668 73.372 170.767C73.9997 170.866 74.64 170.767 75.2194 170.482C75.5055 170.347 101.857 144.82 101.857 144.82Z" fill="url(#paint10_linear_208_12230)"/>
<path d="M153.5 235.81L154.018 236.858C154.656 238.151 155.617 239.215 156.786 239.921L157.734 240.494L156.786 241.067C155.617 241.774 154.656 242.837 154.018 244.13L153.5 245.179L152.982 244.13C152.343 242.837 151.382 241.774 150.213 241.067L149.266 240.494L150.213 239.921C151.382 239.215 152.343 238.151 152.982 236.858L153.5 235.81ZM236.623 99.0469L237.341 100.509C238.231 102.31 239.57 103.791 241.198 104.776L242.52 105.571L241.198 106.365C239.57 107.35 238.231 108.831 237.341 110.632L236.623 112.094L235.906 110.632C235.015 108.831 233.677 107.35 232.049 106.365L230.727 105.571L232.049 104.776C233.677 103.791 235.015 102.31 235.906 100.509L236.623 99.0469ZM79.7374 104.587L80.4552 106.049C81.3455 107.85 82.6839 109.331 84.3118 110.316L85.6336 111.111L84.3118 111.905C82.6839 112.89 81.3455 114.371 80.4552 116.172L79.7374 117.634L79.0196 116.172C78.1268 114.372 76.7862 112.893 75.1567 111.91L73.835 111.116L75.1567 110.322C76.7846 109.337 78.1231 107.856 79.0134 106.055L79.7374 104.587Z" fill="#0B1643"/>
<path d="M74.3505 153.283C74.2318 153.283 74.1022 153.294 73.9835 153.294L73.9187 150.649L73.1522 153.445C71.3278 153.974 70 155.647 70 157.633C70 160.041 71.9432 161.984 74.3505 161.984C74.3829 161.984 74.4045 161.984 74.4261 161.984L74.0806 164.737L75.1818 161.908C77.1897 161.52 78.701 159.76 78.701 157.633C78.7118 155.226 76.7579 153.283 74.3505 153.283ZM74.9443 161.951L74.5125 163.063L74.6528 161.984L75.1494 158.043L71.9971 158.497L73.4005 153.401L73.7568 152.106L73.7784 153.315L73.8647 156.694L77.1573 156.219L74.9443 161.951Z" fill="url(#paint11_linear_208_12230)"/>
</g>
<defs>
<linearGradient id="paint0_linear_208_12230" x1="63.0144" y1="178.933" x2="43.8198" y2="99.8295" gradientUnits="userSpaceOnUse">
<stop stop-color="#D6E6FD"/>
<stop offset="1" stop-color="#D2E3FD"/>
</linearGradient>
<linearGradient id="paint1_linear_208_12230" x1="264.195" y1="6.83824" x2="196.283" y2="35.8252" gradientUnits="userSpaceOnUse">
<stop stop-color="#D6E6FD"/>
<stop offset="1" stop-color="#D2E3FD"/>
</linearGradient>
<linearGradient id="paint2_linear_208_12230" x1="267.076" y1="9.50285" x2="200.957" y2="81.5316" gradientUnits="userSpaceOnUse">
<stop stop-color="#D6E6FD"/>
<stop offset="1" stop-color="#D2E3FD"/>
</linearGradient>
<linearGradient id="paint3_linear_208_12230" x1="197.566" y1="125.059" x2="197.566" y2="177.799" gradientUnits="userSpaceOnUse">
<stop stop-color="#FD9271"/>
<stop offset="1" stop-color="#EB8B75" stop-opacity="0"/>
</linearGradient>
<linearGradient id="paint4_linear_208_12230" x1="117.136" y1="113.998" x2="108.022" y2="142.152" gradientUnits="userSpaceOnUse">
<stop stop-color="#373282"/>
<stop offset="1" stop-color="#2E419B"/>
</linearGradient>
<linearGradient id="paint5_linear_208_12230" x1="274.84" y1="224.822" x2="266.625" y2="232.832" gradientUnits="userSpaceOnUse">
<stop stop-color="#373282"/>
<stop offset="0.44" stop-color="#323A8F"/>
<stop offset="1" stop-color="#2E419B"/>
</linearGradient>
<linearGradient id="paint6_linear_208_12230" x1="255.534" y1="226.022" x2="247.319" y2="234.032" gradientUnits="userSpaceOnUse">
<stop stop-color="#373282"/>
<stop offset="0.44" stop-color="#323A8F"/>
<stop offset="1" stop-color="#2E419B"/>
</linearGradient>
<linearGradient id="paint7_linear_208_12230" x1="43.2085" y1="167.352" x2="100.136" y2="167.352" gradientUnits="userSpaceOnUse">
<stop stop-color="#D6E6FD"/>
<stop offset="1" stop-color="#D2E3FD"/>
</linearGradient>
<linearGradient id="paint8_linear_208_12230" x1="61.815" y1="196.3" x2="87.3798" y2="169.17" gradientUnits="userSpaceOnUse">
<stop stop-color="#A1BFF1"/>
<stop offset="1" stop-color="#A9BAE4" stop-opacity="0"/>
</linearGradient>
<linearGradient id="paint9_linear_208_12230" x1="46.4831" y1="159.975" x2="99.1359" y2="159.975" gradientUnits="userSpaceOnUse">
<stop stop-color="#D6E6FD"/>
<stop offset="1" stop-color="#D2E3FD"/>
</linearGradient>
<linearGradient id="paint10_linear_208_12230" x1="50.7536" y1="169.568" x2="105.16" y2="145.533" gradientUnits="userSpaceOnUse">
<stop stop-color="#A1BFF1"/>
<stop offset="1" stop-color="#A9BAE4" stop-opacity="0"/>
</linearGradient>
<linearGradient id="paint11_linear_208_12230" x1="70.7862" y1="157.412" x2="78.3749" y2="158.081" gradientUnits="userSpaceOnUse">
<stop stop-color="#0051FF"/>
<stop offset="0.079649" stop-color="#0065FF"/>
<stop offset="0.3115" stop-color="#009CFF"/>
<stop offset="0.5276" stop-color="#00C7FF"/>
<stop offset="0.7211" stop-color="#00E5FF"/>
<stop offset="0.8851" stop-color="#00F8FF"/>
<stop offset="1" stop-color="#00FFFF"/>
</linearGradient>
<clipPath id="clip0_208_12230">
<rect width="307" height="276" fill="white" transform="translate(0 0.648682)"/>
</clipPath>
</defs>
</svg>
