<svg width="64" height="47" viewBox="0 0 64 47" fill="none" xmlns="http://www.w3.org/2000/svg">
<g clip-path="url(#clip0_63_11462)">
<path d="M56.5 28.0063H49.5752L48.0156 30.0075H56.5C56.7654 30.0075 57.0199 29.9021 57.2075 29.7145C57.3952 29.5268 57.5006 29.2723 57.5006 29.0069C57.5006 28.7416 57.3952 28.4871 57.2075 28.2994C57.0199 28.1118 56.7654 28.0063 56.5 28.0063Z" fill="#EB5757"/>
<path d="M61.4805 23.0034H51.0894C51.125 23.0647 51.1646 23.1233 51.1958 23.1873C51.4691 23.7514 51.5583 24.3871 51.4507 25.0047H61.4805C61.6241 25.011 61.7594 25.0739 61.8567 25.1797C61.9541 25.2855 62.0056 25.4255 62 25.5691V40.013C61.9179 40.2435 61.7856 40.4529 61.6127 40.6261C61.4397 40.7992 61.2305 40.9318 61 41.0142H45C44.808 41.0142 44.62 41.0694 44.4585 41.1734L39 44.6914V40.8308C38.3557 41.0689 37.6486 41.0753 37 40.8489V45.1372C36.9853 45.5671 37.1018 45.9913 37.334 46.3533C37.9195 47.2117 39.0269 47.1446 39.7827 46.5674L45.294 43.0152H61C62.4019 43.0152 64 41.4163 64 40.0135V25.5691C64.0054 24.895 63.7431 24.2463 63.2708 23.7653C62.7984 23.2843 62.1546 23.0103 61.4805 23.0034Z" fill="#EB5757"/>
<path d="M37.5201 38.904C37.7258 39.007 37.9604 39.0366 38.1852 38.9879C38.41 38.9392 38.6114 38.8151 38.756 38.6362L49.2819 25.4321C49.3992 25.2849 49.4726 25.1075 49.4937 24.9205C49.5148 24.7334 49.4826 24.5441 49.401 24.3745C49.3193 24.2048 49.1915 24.0616 49.0322 23.9613C48.8728 23.8611 48.6884 23.8078 48.5001 23.8076H44.86L47.1183 18.3853C47.1816 18.2333 47.2065 18.068 47.1907 17.9041C47.1749 17.7402 47.1188 17.5827 47.0275 17.4457C46.9362 17.3086 46.8125 17.1962 46.6674 17.1185C46.5222 17.0407 46.3601 17 46.1954 17H41.4777C41.2883 17 41.1029 17.0538 40.9429 17.1551C40.7829 17.2563 40.6549 17.4009 40.5739 17.572L35.5963 28.0784C35.524 28.2308 35.4915 28.3991 35.5017 28.5675C35.512 28.7359 35.5646 28.899 35.6548 29.0416C35.745 29.1842 35.8698 29.3017 36.0176 29.3831C36.1654 29.4645 36.3314 29.5073 36.5001 29.5073H39.2809L37.0104 37.7466C36.9491 37.9687 36.9663 38.2052 37.0592 38.4161C37.1521 38.6269 37.3149 38.7993 37.5201 38.904ZM38.0807 27.5061L42.1105 19.001H44.6954L42.4371 24.4233C42.3737 24.5753 42.3488 24.7406 42.3646 24.9046C42.3804 25.0685 42.4365 25.226 42.5278 25.363C42.6191 25.5001 42.7428 25.6125 42.888 25.6903C43.0331 25.7681 43.1953 25.8088 43.36 25.8088H46.4235L40.2355 33.5713L41.5577 28.7729C41.5987 28.6244 41.6049 28.4685 41.5757 28.3172C41.5466 28.1659 41.4828 28.0234 41.3896 27.9008C41.2963 27.7782 41.1759 27.6788 41.0379 27.6103C40.8999 27.5418 40.7479 27.5062 40.5939 27.5061H38.0807ZM56.5001 32.0088H46.4567L44.8971 34.01H56.5001C56.7655 34.01 57.02 33.9046 57.2076 33.7169C57.3953 33.5293 57.5007 33.2748 57.5007 33.0094C57.5007 32.744 57.3953 32.4895 57.2076 32.3019C57.02 32.1142 56.7655 32.0088 56.5001 32.0088ZM56.5001 36.0112H43.3375L41.7784 38.0122H56.5001C56.7642 38.0103 57.0169 37.9041 57.203 37.7167C57.3891 37.5293 57.4935 37.2759 57.4935 37.0117C57.4935 36.7476 57.3891 36.4942 57.203 36.3068C57.0169 36.1193 56.7642 36.0131 56.5001 36.0112ZM7.50011 28.0063C7.23474 28.0063 6.98023 28.1118 6.79258 28.2994C6.60493 28.4871 6.49951 28.7416 6.49951 29.007C6.49951 29.2723 6.60493 29.5268 6.79258 29.7145C6.98023 29.9021 7.23474 30.0075 7.50011 30.0075H15.9845L14.4249 28.0063H7.50011Z" fill="#EB5757"/>
<path d="M25.0001 40.8308V44.6914L19.5416 41.1734C19.3801 41.0694 19.1921 41.0142 19.0001 41.0142H3.00008C2.76964 40.9318 2.56039 40.7992 2.38745 40.6261C2.21451 40.4529 2.0822 40.2435 2.00008 40.013V25.5691C1.9945 25.4255 2.04602 25.2855 2.14338 25.1797C2.24073 25.0739 2.37601 25.011 2.51963 25.0047H12.5494C12.4418 24.3871 12.531 23.7514 12.8043 23.1873C12.8355 23.1233 12.8751 23.0647 12.9107 23.0034H2.51963C1.84553 23.0103 1.20168 23.2843 0.729345 23.7653C0.257006 24.2463 -0.00526087 24.895 8.00017e-05 25.5691V40.0135C8.00017e-05 41.4163 1.59823 43.0152 3.00008 43.0152H18.7061L24.2174 46.5674C24.9732 47.1446 26.0806 47.2117 26.6661 46.3533C26.8983 45.9913 27.0149 45.5671 27.0001 45.1372V40.8489C26.3515 41.0753 25.6444 41.0689 25.0001 40.8308Z" fill="#EB5757"/>
<path d="M23.4264 17.572C23.3453 17.4009 23.2173 17.2563 23.0573 17.1551C22.8973 17.0538 22.7119 17 22.5226 17H17.8048C17.6401 17 17.478 17.0407 17.3329 17.1185C17.1877 17.1962 17.064 17.3086 16.9727 17.4457C16.8814 17.5827 16.8253 17.7402 16.8095 17.9041C16.7937 18.068 16.8186 18.2333 16.882 18.3853L19.1403 23.8076H15.5001C15.3118 23.8078 15.1274 23.8611 14.9681 23.9613C14.8087 24.0616 14.6809 24.2048 14.5992 24.3745C14.5176 24.5441 14.4855 24.7334 14.5065 24.9205C14.5276 25.1075 14.601 25.2849 14.7184 25.4321L25.2443 38.6362C25.3879 38.8165 25.5893 38.9416 25.8145 38.9904C26.0397 39.0391 26.2749 39.0086 26.4802 38.904C26.6855 38.7994 26.8484 38.627 26.9413 38.4161C27.0341 38.2052 27.0513 37.9687 26.9899 37.7466L24.7194 29.5073H27.5001C27.6688 29.5073 27.8348 29.4645 27.9826 29.3831C28.1304 29.3017 28.2552 29.1842 28.3454 29.0416C28.4356 28.899 28.4882 28.7359 28.4985 28.5675C28.5087 28.3991 28.4762 28.2308 28.4039 28.0784L23.4264 17.572ZM23.4064 27.5061C23.2523 27.5062 23.1003 27.5418 22.9623 27.6103C22.8243 27.6788 22.7039 27.7782 22.6107 27.9008C22.5174 28.0234 22.4537 28.1659 22.4245 28.3172C22.3953 28.4685 22.4015 28.6244 22.4425 28.7729L23.7648 33.5713L17.5768 25.8088H20.6403C20.8049 25.8088 20.9671 25.7681 21.1122 25.6903C21.2574 25.6125 21.3811 25.5001 21.4724 25.363C21.5637 25.226 21.6198 25.0685 21.6356 24.9046C21.6514 24.7406 21.6265 24.5753 21.5631 24.4233L19.3048 19.001H21.8898L25.9196 27.5061H23.4064ZM7.50011 32.0088C7.23474 32.0088 6.98023 32.1142 6.79258 32.3019C6.60493 32.4895 6.49951 32.744 6.49951 33.0094C6.49951 33.2748 6.60493 33.5293 6.79258 33.7169C6.98023 33.9046 7.23474 34.01 7.50011 34.01H19.1032L17.5436 32.0088H7.50011ZM6.50011 37.0117C6.50006 37.277 6.60539 37.5314 6.79292 37.719C6.98045 37.9067 7.23483 38.0121 7.50011 38.0122H22.2218L20.6627 36.0112H7.50011C7.23484 36.0113 6.98046 36.1168 6.79293 36.3044C6.6054 36.492 6.50007 36.7464 6.50011 37.0117Z" fill="#EB5757"/>
</g>
<defs>
<clipPath id="clip0_63_11462">
<rect width="64" height="47" fill="white"/>
</clipPath>
</defs>
</svg>
