<svg width="45" height="45" viewBox="0 0 45 45" fill="none" xmlns="http://www.w3.org/2000/svg">
<path fill-rule="evenodd" clip-rule="evenodd" d="M6.03944 20.2086C6.07319 13.3742 11.6457 7.7998 18.4819 7.76793C20.0983 7.7562 21.7008 8.06591 23.1963 8.67905C24.6919 9.29218 26.0506 10.1965 27.1936 11.3394C28.3365 12.4824 29.2408 13.8411 29.8539 15.3367C30.4671 16.8322 30.7768 18.4347 30.7651 20.0511C30.7605 21.1127 30.6199 22.1694 30.3469 23.1954C30.2615 23.5153 30.2623 23.8521 30.3493 24.1715C30.4362 24.491 30.6062 24.7817 30.8419 25.0142L32.8032 26.9492L29.0063 30.7461L25.6201 34.1323L25.2338 34.5186L23.2782 32.5611C23.0459 32.3282 22.7564 32.1606 22.4388 32.0751C22.1212 31.9895 21.7867 31.989 21.4688 32.0736C20.4429 32.3473 19.3862 32.4884 18.3244 32.4936C16.7078 32.5055 15.1049 32.1959 13.609 31.5828C12.1131 30.9697 10.7541 30.0652 9.61093 28.9221C8.46777 27.7789 7.56332 26.4198 6.95018 24.924C6.33705 23.4281 6.02746 21.8252 6.03944 20.2086ZM22.8882 37.4604C23.3583 37.8403 23.914 38.0996 24.507 38.216C25.1001 38.3323 25.7126 38.3021 26.2913 38.1279L29.4694 40.8973L29.9907 41.3661C30.8094 42.104 31.7943 42.6333 32.8615 42.9089C33.9287 43.1845 35.0467 43.1982 36.1204 42.949C37.1941 42.6997 38.1916 42.1948 39.0283 41.4772C39.8649 40.7596 40.5158 39.8505 40.9257 38.8273C41.4053 37.6324 41.5403 36.327 41.3152 35.0592C41.0902 33.7915 40.5142 32.6122 39.6526 31.6554L38.2801 30.1348L36.4144 28.0029C36.5879 27.4247 36.6178 26.813 36.5015 26.2206C36.3852 25.6283 36.1262 25.0732 35.7469 24.6036C35.703 24.5485 35.6561 24.4959 35.6063 24.4461L34.2188 23.0773C34.4101 22.1023 34.5113 21.0973 34.5151 20.0698C34.5293 17.958 34.1238 15.8645 33.3223 13.9107C32.5208 11.9569 31.3391 10.1818 29.8459 8.68842C28.3527 7.19505 26.5777 6.01318 24.624 5.21142C22.6703 4.40965 20.5768 4.00397 18.4651 4.01793C9.57194 4.06105 2.33444 11.2986 2.28944 20.1898C2.27498 22.302 2.68035 24.3961 3.48201 26.3504C4.28367 28.3046 5.46563 30.0801 6.95925 31.5737C8.45286 33.0674 10.2284 34.2493 12.1826 35.051C14.1369 35.8526 16.2309 36.258 18.3432 36.2436C19.3559 36.2385 20.3659 36.1387 21.3601 35.9454L22.7419 37.3273C22.7889 37.3743 22.8384 37.4187 22.8901 37.4604H22.8882ZM35.7132 39.1592C34.9517 39.4614 34.1014 39.4493 33.3488 39.1254L36.9976 34.3217C37.6876 35.1936 37.8638 36.3842 37.4438 37.4304C37.2871 37.8209 37.0528 38.1754 36.755 38.4726C36.4572 38.7698 36.1021 39.0033 35.7113 39.1592H35.7132ZM29.1957 35.7654L30.9676 37.3386L34.9501 31.8317L33.4257 30.0879L29.1957 35.7654Z" fill="#27AE60"/>
</svg>
