<svg width="225" height="291" viewBox="0 0 225 291" fill="none" xmlns="http://www.w3.org/2000/svg">
<path d="M63.551 46.5706C61.0785 49.0196 58.6038 51.9161 56.1313 54.3651L0.235712 0.630588L41.9404 74.6553C14.8624 123.296 21.7241 185.521 62.6899 226.88C112.339 277.005 192.874 277.39 242.999 227.741C243.673 227.073 244.123 226.628 244.573 226.182L294.153 290.625L258.749 209.024C292.542 159.521 287.72 91.7128 243.86 47.4317C194.436 -2.91622 113.676 -3.0782 63.551 46.5706ZM254.694 214.821L268.635 246.879L249.293 221.507L178.369 129.222L122.085 203.674L46.2197 68.6355L26.9205 34.3151L52.3058 59.0449L123.79 127.619L182.551 49.8235L254.694 214.821Z" fill="url(#paint0_linear_63_11452)"/>
<defs>
<linearGradient id="paint0_linear_63_11452" x1="74.4934" y1="206.055" x2="246.313" y2="63.4889" gradientUnits="userSpaceOnUse">
<stop stop-color="#0051FF"/>
<stop offset="0.079649" stop-color="#0065FF"/>
<stop offset="0.3115" stop-color="#009CFF"/>
<stop offset="0.5276" stop-color="#00C7FF"/>
<stop offset="0.7211" stop-color="#00E5FF"/>
<stop offset="0.8851" stop-color="#00F8FF"/>
<stop offset="1" stop-color="#00FFFF"/>
</linearGradient>
</defs>
</svg>
