<svg width="152" height="152" viewBox="0 0 152 152" fill="none" xmlns="http://www.w3.org/2000/svg">
<g clip-path="url(#clip0_73_11638)">
<path d="M19.125 58.8946H132.375L135.796 47.8055C137.035 43.7356 134.793 39.4887 130.723 38.25C130.546 38.191 130.37 38.1321 130.193 38.1321L117.039 35.0649C116.862 35.0059 116.744 34.8879 116.744 34.7699L113.736 21.5574C112.792 17.4285 108.663 14.8332 104.534 15.777C104.357 15.836 104.18 15.8949 104.004 15.8949L91.0859 19.9059C90.909 19.9649 90.732 19.9059 90.673 19.7879L81.4715 9.87854C78.5812 6.75237 73.7445 6.57541 70.6184 9.46565C70.5004 9.58362 70.3824 9.70159 70.2055 9.87854L61.0039 19.7879C60.8859 19.9059 60.709 19.9649 60.591 19.9059L47.6734 15.8949C43.6035 14.6563 39.3566 16.8977 38.118 20.9676C38.059 21.1446 38 21.3215 38 21.4985L34.9918 34.711C34.9328 34.8879 34.8148 35.0059 34.6969 35.0059L21.4844 38.0141C17.3555 38.9578 14.7601 43.0867 15.7039 47.2156C15.7629 47.3926 15.8219 47.5696 15.8219 47.7465L19.125 58.8946ZM132.434 93.1055H19.125L15.7039 104.195C14.4652 108.264 16.7066 112.511 20.7766 113.75C20.9535 113.809 21.1305 113.868 21.3074 113.868L34.5199 116.876C34.6969 116.935 34.8148 117.053 34.8148 117.171L37.823 130.384C38.7668 134.513 42.8957 137.108 47.0246 136.164C47.2016 136.105 47.3785 136.046 47.5555 136.046L60.473 132.035C60.65 131.976 60.8269 132.035 60.8859 132.153L70.0875 142.063C72.9777 145.189 77.8144 145.366 80.9406 142.475C81.0586 142.357 81.2355 142.239 81.3535 142.063L90.5551 132.153C90.673 132.035 90.85 131.976 90.968 132.035L103.886 136.046C107.955 137.285 112.202 135.043 113.441 130.973C113.5 130.797 113.559 130.62 113.559 130.443L116.567 117.23C116.626 117.053 116.744 116.935 116.862 116.935L130.075 113.927C134.204 112.983 136.799 108.854 135.855 104.725C135.796 104.548 135.737 104.372 135.737 104.195L132.434 93.1055Z" fill="url(#paint0_linear_73_11638)"/>
<path d="M26.6161 58.5996C26.675 58.7175 26.675 58.7765 26.675 58.8945H124.825C124.825 58.7765 124.884 58.7175 124.884 58.5996L128.895 45.682C128.954 45.446 128.836 45.2101 128.6 45.1511C128.6 45.1511 128.6 45.1511 128.541 45.1511L115.329 42.1429C112.438 41.4941 110.197 39.2527 109.548 36.3624L106.54 23.15C106.481 22.914 106.245 22.796 106.009 22.855C106.009 22.855 106.009 22.855 105.95 22.855L93.0325 26.866C90.2012 27.6917 87.193 26.925 85.1875 24.7425L75.986 14.8332C75.809 14.6562 75.5731 14.6562 75.3961 14.8332L66.1946 24.7425C64.1891 26.866 61.1219 27.6917 58.3496 26.866L45.4321 22.855C45.1961 22.796 44.9602 22.914 44.9012 23.15C44.9012 23.15 44.9012 23.15 44.9012 23.2089L41.893 36.4214C41.2442 39.3117 39.0028 41.5531 36.1125 42.2019L22.9 45.2101C22.6641 45.2691 22.5461 45.505 22.6051 45.741C22.6051 45.741 22.6051 45.741 22.6051 45.8L26.6161 58.5996ZM124.943 93.4003C124.884 93.2824 124.884 93.2234 124.884 93.1054H26.734C26.734 93.2234 26.675 93.2824 26.675 93.4003L22.6641 106.318C22.6051 106.554 22.7231 106.79 22.959 106.849C22.959 106.849 22.959 106.849 23.018 106.849L36.2305 109.857C39.1207 110.506 41.3622 112.747 42.011 115.637L45.0192 128.85C45.0782 129.086 45.3141 129.204 45.55 129.145C45.55 129.145 45.55 129.145 45.609 129.145L58.5266 125.134C61.3579 124.249 64.3661 125.075 66.3715 127.257L75.5731 137.167C75.75 137.344 75.986 137.344 76.1629 137.167L85.3645 127.257C87.37 125.134 90.4371 124.308 93.2094 125.134L106.127 129.145C106.363 129.204 106.599 129.086 106.658 128.85C106.658 128.85 106.658 128.85 106.658 128.791L109.666 115.578C110.315 112.688 112.556 110.447 115.447 109.798L128.659 106.79C128.895 106.731 129.013 106.495 128.954 106.259C128.954 106.259 128.954 106.259 128.954 106.2L124.943 93.4003Z" fill="#00FFFF"/>
<path d="M4.96885 58.8945H146.59C148.36 58.8945 149.775 60.3102 149.775 62.0797V89.8613C149.775 91.6309 148.36 93.0465 146.59 93.0465H4.96885C3.19932 93.0465 1.78369 91.6309 1.78369 89.8613V62.0797C1.78369 60.3102 3.19932 58.8945 4.96885 58.8945Z" fill="#FCD770"/>
<path d="M4.96875 58.8946L16.7656 51.1676L19.125 58.8946H4.96875Z" fill="#FFCD29"/>
<path d="M146.59 58.8946L134.793 51.1676L132.434 58.8946H146.59Z" fill="#FFCD29"/>
<path d="M21.7204 123.718H20.6586V122.657C20.6586 121.831 20.0098 121.182 19.184 121.182C18.3583 121.182 17.7094 121.831 17.7094 122.657V123.718H16.6477C15.8219 123.718 15.1731 124.367 15.1731 125.193C15.1731 126.019 15.8219 126.668 16.6477 126.668H17.7094V127.729C17.7094 128.555 18.3583 129.204 19.184 129.204C20.0098 129.204 20.6586 128.555 20.6586 127.729V126.668H21.7204C22.5461 126.668 23.195 126.019 23.195 125.193C23.195 124.367 22.5461 123.718 21.7204 123.718Z" fill="#60BAE2"/>
<path d="M130.37 24.3887C130.37 24.2707 130.311 24.2117 130.311 24.0938C130.252 24.0348 130.252 23.9168 130.193 23.8578C130.134 23.7989 130.075 23.6809 130.016 23.6219C129.426 23.091 128.541 23.091 127.951 23.6219C127.892 23.6809 127.833 23.7399 127.774 23.8578C127.656 24.0348 127.597 24.2117 127.538 24.3887C127.479 24.5656 127.479 24.8016 127.538 24.9785C127.538 25.0965 127.597 25.1555 127.597 25.2735C127.656 25.3914 127.656 25.4504 127.715 25.5094C127.774 25.5684 127.833 25.6864 127.892 25.7453C128.482 26.3352 129.367 26.3352 129.957 25.7453C130.016 25.6864 130.075 25.6274 130.134 25.5094C130.193 25.4504 130.252 25.3324 130.252 25.2735C130.311 25.2145 130.311 25.0965 130.311 24.9785C130.429 24.7426 130.429 24.5656 130.37 24.3887Z" fill="#00FFFF"/>
<path d="M30.155 135.515C30.155 135.397 30.096 135.338 30.096 135.22C30.0371 135.161 30.0371 135.043 29.9781 134.984C29.9191 134.925 29.8601 134.807 29.8011 134.748C29.2113 134.218 28.3265 134.218 27.7367 134.748C27.6777 134.807 27.6187 134.866 27.5597 134.984C27.4417 135.161 27.3828 135.338 27.3238 135.515C27.2648 135.692 27.2648 135.928 27.3238 136.105C27.3238 136.223 27.3828 136.282 27.3828 136.4C27.4417 136.518 27.4417 136.577 27.5007 136.636C27.5597 136.695 27.6187 136.813 27.6777 136.872C28.2675 137.462 29.1523 137.462 29.7421 136.872C29.8011 136.813 29.8601 136.754 29.9191 136.636C29.9781 136.577 30.0371 136.459 30.0371 136.4C30.096 136.341 30.096 136.223 30.096 136.105C30.214 135.928 30.214 135.751 30.155 135.515Z" fill="#6DCC6D"/>
<path d="M126.948 10.3504C124.53 9.87852 122.702 7.99102 122.23 5.63164C122.23 5.57266 122.171 5.51367 122.112 5.51367C122.053 5.51367 122.053 5.57266 121.994 5.63164C121.522 8.05 119.634 9.87852 117.275 10.3504C117.216 10.3504 117.157 10.4094 117.157 10.4684C117.157 10.5273 117.216 10.5273 117.275 10.5863C119.693 11.0582 121.522 12.9457 121.994 15.3051C121.994 15.3641 122.053 15.423 122.112 15.423C122.171 15.423 122.171 15.3641 122.23 15.3051C122.702 12.8867 124.589 11.0582 126.948 10.5863C127.007 10.5863 127.066 10.5273 127.066 10.4684C127.066 10.3504 127.007 10.3504 126.948 10.3504Z" fill="#FFCD29"/>
<path d="M146.59 94.5801H4.96885C2.37354 94.5801 0.309082 92.5156 0.309082 89.9203V62.1386C0.309082 59.5433 2.37354 57.4789 4.96885 57.4789H146.59C149.186 57.4789 151.25 59.5433 151.25 62.1386V89.9203C151.25 92.4566 149.186 94.5801 146.59 94.5801ZM4.96885 60.3691C4.0251 60.3691 3.2583 61.1359 3.2583 62.0797V89.8613C3.2583 90.8051 4.0251 91.5718 4.96885 91.5718H146.59C147.534 91.5718 148.301 90.8051 148.301 89.8613V62.0797C148.301 61.1359 147.534 60.3691 146.59 60.3691H4.96885Z" fill="#333333"/>
<path d="M132.434 60.3691H19.1251C18.4762 60.3691 17.8864 59.9563 17.7094 59.3074L14.2884 48.2184C12.8137 43.3817 15.527 38.25 20.3637 36.7754C20.5997 36.7164 20.7766 36.6574 21.0126 36.5984L33.5762 33.7672L36.4075 21.2035C37.5282 16.3078 42.4239 13.1817 47.3786 14.3024C47.6145 14.3613 47.7915 14.4203 48.0274 14.4793L60.2962 18.2543L69.0848 8.81681C72.5059 5.10079 78.2864 4.92384 82.0024 8.34493C82.1794 8.52189 82.2973 8.63986 82.4743 8.81681L91.263 18.2543L103.591 14.4793C108.427 13.0047 113.559 15.718 115.034 20.5547C115.093 20.7906 115.152 20.9676 115.211 21.2035L118.042 33.7672L130.606 36.5984C135.501 37.7192 138.627 42.6149 137.507 47.5695C137.448 47.8055 137.389 47.9824 137.33 48.2184L133.909 59.3074C133.614 59.9563 133.083 60.3691 132.434 60.3691ZM20.2458 57.4199H131.313L134.44 47.3336C135.442 44.0895 133.614 40.6094 130.311 39.6067C130.193 39.5477 130.016 39.5477 129.898 39.4887L116.685 36.4805C115.977 36.3035 115.447 35.7727 115.27 35.0649L112.261 21.8524C111.495 18.4902 108.191 16.4258 104.829 17.1926C104.652 17.2516 104.534 17.2516 104.416 17.3106L91.4989 21.3215C90.7911 21.5574 90.0243 21.3215 89.5524 20.7906L80.3508 10.8813C77.9915 8.40392 74.0985 8.22696 71.6212 10.5863C71.5032 10.7043 71.3852 10.7633 71.3262 10.8813L62.1247 20.7906C61.6528 21.3215 60.886 21.4984 60.1782 21.3215L47.2606 17.3106C44.0165 16.3078 40.5364 18.1363 39.5337 21.4395C39.4747 21.5574 39.4747 21.7344 39.4157 21.8524L36.4075 35.0649C36.2305 35.7727 35.6997 36.3035 34.9919 36.4805L21.7794 39.4887C18.4173 40.2555 16.3528 43.5586 17.1196 46.9207C17.1786 47.0977 17.1786 47.2156 17.2376 47.3336L20.2458 57.4199ZM75.8091 146.014C73.2727 146.014 70.8544 144.953 69.1438 143.124L60.3551 133.687L48.0274 137.462C43.1907 138.936 38.059 136.223 36.5844 131.386C36.5255 131.15 36.4665 130.973 36.4075 130.738L33.5762 118.174L21.0126 115.343C16.1169 114.222 12.9907 109.326 14.1114 104.372C14.1704 104.136 14.2294 103.959 14.2884 103.723L17.7094 92.6336C17.8864 92.0438 18.4762 91.5719 19.1251 91.5719H132.375C133.024 91.5719 133.614 91.9848 133.791 92.6336L137.212 103.723C138.686 108.559 135.973 113.691 131.136 115.166C130.9 115.225 130.723 115.284 130.488 115.343L117.924 118.174L115.093 130.738C113.972 135.633 109.076 138.759 104.122 137.639C103.886 137.58 103.709 137.521 103.473 137.462L91.145 133.687L82.3563 143.124C80.7637 144.953 78.3454 146.014 75.8091 146.014ZM60.6501 130.561C61.1809 130.561 61.7118 130.797 62.0657 131.15L71.2673 141.06C72.4469 142.298 74.0985 143.065 75.8091 143.006C77.5196 143.006 79.1712 142.298 80.3508 141.06L89.5524 131.15C90.0243 130.62 90.7911 130.443 91.4989 130.62L104.416 134.63C107.661 135.633 111.141 133.805 112.143 130.502C112.202 130.384 112.202 130.207 112.261 130.089L115.27 116.876C115.447 116.168 115.977 115.638 116.685 115.461L129.898 112.452C133.26 111.686 135.324 108.382 134.557 105.02C134.498 104.843 134.498 104.725 134.44 104.607L131.313 94.5801H20.2458L17.1196 104.607C16.1169 107.852 17.9454 111.332 21.2485 112.334C21.3665 112.393 21.5434 112.393 21.6614 112.452L34.8739 115.461C35.5817 115.638 36.1126 116.168 36.2895 116.876L39.2977 130.089C40.0645 133.451 43.3676 135.515 46.7298 134.748C46.8477 134.689 47.0247 134.689 47.1426 134.63L60.0602 130.62C60.2962 130.62 60.4731 130.561 60.6501 130.561Z" fill="#333333"/>
<path d="M124.825 60.3691H26.734C26.0852 60.3691 25.4953 59.8973 25.3184 59.2484V59.1305C25.3184 59.0715 25.3184 59.0125 25.2594 58.9535L21.2484 46.0359C20.9535 45.0332 21.4844 43.9715 22.4871 43.6766C22.5461 43.6766 22.6051 43.6766 22.6051 43.6176L35.8176 40.6094C38.118 40.0785 39.9465 38.25 40.4773 35.9496L43.4855 22.7371C43.7215 21.7344 44.7242 21.0855 45.727 21.3215C45.7859 21.3215 45.8449 21.3215 45.8449 21.3805L58.7625 25.3914C61.0039 26.0992 63.4813 25.4504 65.1328 23.6809L74.3344 13.7715C74.6883 13.3586 75.2191 13.1816 75.75 13.1816C76.2809 13.1816 76.7527 13.4176 77.1656 13.7715L86.3672 23.7398C87.9598 25.4504 90.4371 26.1582 92.7375 25.4504L105.655 21.4395C106.658 21.1445 107.72 21.6754 108.014 22.6781C108.014 22.7371 108.014 22.7961 108.073 22.7961L111.082 36.0086C111.612 38.309 113.441 40.1375 115.741 40.6684L128.954 43.6766C129.957 43.9125 130.605 44.9152 130.37 45.918C130.37 45.977 130.37 46.0359 130.311 46.0359L126.3 58.9535C126.3 59.0125 126.3 59.0715 126.241 59.1305V59.2484C126.123 59.9562 125.533 60.3691 124.825 60.3691ZM27.7957 57.4199H123.704L127.125 46.3309L115.093 43.5586C111.671 42.7918 109.017 40.0785 108.191 36.6574L105.419 24.5656L93.5633 28.2227C90.2012 29.2254 86.5441 28.2816 84.1848 25.6863L75.75 16.6027L67.3152 25.6863C64.8969 28.2227 61.2988 29.2254 57.9367 28.2227L46.0809 24.5656L43.3086 36.6574C42.5418 40.0785 39.8285 42.7328 36.4074 43.5586L24.3156 46.3309L27.7957 57.4199ZM75.809 138.759C75.2781 138.759 74.8063 138.523 74.3934 138.17L65.1918 128.26C63.5992 126.55 61.1219 125.842 58.8215 126.55L45.9039 130.561C44.9012 130.855 43.8395 130.325 43.5445 129.322C43.5445 129.263 43.5445 129.204 43.4855 129.204L40.4773 115.991C39.9465 113.691 38.118 111.862 35.8176 111.332L22.6051 108.323C21.6023 108.088 20.9535 107.085 21.1895 106.082C21.1895 106.023 21.1895 105.964 21.2484 105.964L25.2594 93.0465C25.2594 92.9875 25.2594 92.9285 25.3184 92.9285V92.8105C25.4953 92.1617 26.0852 91.6898 26.734 91.6898H124.884C125.533 91.6898 126.123 92.1617 126.3 92.8105V92.9285C126.3 92.9875 126.3 93.0465 126.359 93.0465L130.37 105.964C130.664 106.967 130.134 108.029 129.131 108.323C129.072 108.323 129.013 108.323 129.013 108.382L115.8 111.391C113.5 111.921 111.671 113.75 111.141 116.05L108.132 129.263C107.896 130.266 106.894 130.914 105.891 130.679C105.832 130.679 105.773 130.679 105.773 130.62L92.8555 126.609C90.6141 125.901 88.1367 126.55 86.4852 128.319L77.2836 138.229C76.8117 138.582 76.3398 138.759 75.809 138.759ZM60.65 123.364C63.1863 123.364 65.6047 124.426 67.3742 126.255L75.809 135.338L84.2437 126.255C86.6621 123.718 90.2602 122.716 93.6223 123.718L105.478 127.375L108.25 115.284C109.017 111.863 111.73 109.208 115.152 108.382L127.243 105.61L123.822 94.5211H27.7957L24.3746 105.61L36.4664 108.382C39.8875 109.149 42.5418 111.863 43.3676 115.284L46.1398 127.375L57.9957 123.718C58.8215 123.482 59.7062 123.364 60.65 123.364ZM19.125 60.3691H4.96875C4.14297 60.3691 3.49414 59.7203 3.49414 58.8945C3.49414 58.4227 3.73008 57.9508 4.14297 57.6559L15.9398 49.9289C16.6477 49.457 17.5324 49.693 18.0043 50.3418C18.0633 50.4598 18.1223 50.5777 18.1812 50.6957L20.5406 58.4227C20.7766 59.1895 20.3637 60.0152 19.5379 60.2512C19.4199 60.3691 19.302 60.3691 19.125 60.3691ZM9.92344 57.4199H17.1785L15.9398 53.468L9.92344 57.4199ZM146.59 60.3691H132.434C131.608 60.3691 130.959 59.7203 130.959 58.8945C130.959 58.7766 130.959 58.5996 131.018 58.4816L133.378 50.7547C133.614 49.9879 134.439 49.516 135.206 49.752C135.324 49.8109 135.442 49.8699 135.56 49.9289L147.357 57.6559C148.065 58.1277 148.242 59.0125 147.77 59.7203C147.534 60.1332 147.062 60.3691 146.59 60.3691ZM134.439 57.4199H141.695L135.678 53.468L134.439 57.4199Z" fill="#333333"/>
<path d="M77.9914 119.943H70.9722C70.1464 119.943 69.4976 119.294 69.4976 118.469C69.4976 117.643 70.1464 116.994 70.9722 116.994H77.9914C79.348 116.994 80.4687 115.873 80.4687 114.517C80.4687 113.16 79.348 112.039 77.9914 112.039H73.6265C70.6183 112.039 68.2 109.621 68.2 106.613C68.2 103.605 70.6183 101.186 73.6265 101.186H79.8199C80.6457 101.186 81.2945 101.835 81.2945 102.661C81.2945 103.487 80.6457 104.135 79.8199 104.135H73.6265C72.2699 104.135 71.1492 105.256 71.1492 106.613C71.1492 107.969 72.2699 109.09 73.6265 109.09H77.9914C80.9996 109.09 83.4179 111.509 83.4179 114.517C83.4179 117.525 80.9996 119.943 77.9914 119.943Z" fill="#333333"/>
<path d="M75.8091 122.657C74.9833 122.657 74.3345 122.008 74.3345 121.182V99.9476C74.3345 99.1219 74.9833 98.473 75.8091 98.473C76.6349 98.473 77.2837 99.1219 77.2837 99.9476V121.182C77.2837 121.949 76.5759 122.657 75.8091 122.657ZM97.7513 114.635H92.7376C91.9118 114.635 91.263 113.986 91.263 113.16C91.263 112.334 91.9118 111.686 92.7376 111.686H97.7513C98.5181 111.686 99.1079 111.096 99.1079 110.388C99.1079 109.621 98.5181 109.031 97.8103 109.031H97.7513H94.6251C92.2657 109.031 90.3192 107.085 90.3192 104.725C90.3192 102.366 92.2657 100.419 94.6251 100.419H99.0489C99.8747 100.419 100.524 101.068 100.524 101.894C100.524 102.72 99.8747 103.369 99.0489 103.369H94.6251C93.8583 103.369 93.2685 103.959 93.2685 104.725C93.2685 105.492 93.8583 106.082 94.6251 106.082H97.7513C100.111 106.082 102.057 107.97 102.116 110.329C102.175 112.688 100.229 114.635 97.8692 114.694C97.8103 114.635 97.8103 114.635 97.7513 114.635Z" fill="#333333"/>
<path d="M96.1586 116.581C95.3328 116.581 94.684 115.932 94.684 115.107V99.9476C94.684 99.1219 95.3328 98.473 96.1586 98.473C96.9844 98.473 97.6332 99.1219 97.6332 99.9476V115.107C97.6332 115.932 96.9844 116.581 96.1586 116.581ZM56.934 114.635H51.9203C51.0945 114.635 50.4457 113.986 50.4457 113.16C50.4457 112.334 51.0945 111.686 51.9203 111.686H56.934C57.7008 111.686 58.2906 111.037 58.2316 110.329C58.2316 109.621 57.6418 109.031 56.934 109.031H53.8078C51.4484 109.031 49.502 107.085 49.502 104.725C49.502 102.366 51.4484 100.419 53.8078 100.419H58.2316C59.0574 100.419 59.7063 101.068 59.7063 101.894C59.7063 102.72 59.0574 103.369 58.2316 103.369H53.8078C53.041 103.369 52.4512 103.959 52.4512 104.725C52.4512 105.492 53.041 106.082 53.8078 106.082H56.934C59.2934 106.082 61.2398 108.087 61.1809 110.447C61.1809 112.747 59.2934 114.635 56.934 114.635Z" fill="#333333"/>
<path d="M55.4004 116.581C54.5746 116.581 53.9258 115.932 53.9258 115.107V99.9476C53.9258 99.1219 54.5746 98.473 55.4004 98.473C56.2262 98.473 56.875 99.1219 56.875 99.9476V115.107C56.875 115.932 56.1672 116.581 55.4004 116.581Z" fill="#333333"/>
<path d="M53.3359 39.3707L52.2152 39.9606C51.5664 40.3145 50.7406 40.0785 50.3867 39.4297C50.3277 39.3117 50.2687 39.1938 50.2687 39.0758C50.1507 38.486 50.4457 37.8961 50.9765 37.6602L53.5129 36.3625C53.6898 36.2446 53.9257 36.1856 54.1027 36.1856H55.1644C55.8722 36.1856 56.5211 36.7754 56.5211 37.5422V50.2239C56.5211 51.1086 55.8132 51.8164 54.9285 51.8164C54.0437 51.8164 53.3359 51.1086 53.3359 50.2239V39.3707ZM71.5031 43.8535C71.5031 48.6903 69.7336 51.9934 66.1355 51.9934C62.4785 51.9934 60.8859 48.3364 60.8859 43.9125C60.8859 39.3707 62.5965 35.8317 66.2535 35.8317C70.0285 35.8317 71.5031 39.6067 71.5031 43.8535ZM64.248 43.9715C64.248 47.5696 65.0148 49.2801 66.3125 49.2801C67.6101 49.2801 68.259 47.5106 68.259 43.9125C68.259 40.4324 67.6101 38.6039 66.2535 38.6039C65.0148 38.6039 64.189 40.3145 64.248 43.9715ZM83.5359 43.8535C83.5359 48.6903 81.7664 51.9934 78.1683 51.9934C74.5113 51.9934 72.9187 48.3364 72.9187 43.9125C72.9187 39.3707 74.6293 35.8317 78.2863 35.8317C82.0613 35.8317 83.5359 39.6067 83.5359 43.8535ZM76.2218 43.9715C76.2218 47.5696 76.9886 49.2801 78.2863 49.2801C79.584 49.2801 80.2328 47.5106 80.2328 43.9125C80.2328 40.4324 79.5839 38.6039 78.2273 38.6039C77.0476 38.6039 76.2218 40.3145 76.2218 43.9715ZM88.6675 45.5051C83.4769 45.5051 83.5949 35.8906 88.7855 35.8906C94.0941 35.8317 93.6812 45.5051 88.6675 45.5051ZM88.7265 43.4996C89.6703 43.4996 90.1422 42.4379 90.1422 40.6684C90.1422 39.0758 89.7293 37.8371 88.7265 37.8371C86.78 37.8371 86.78 43.4996 88.7265 43.4996ZM98.8129 51.9934C93.6222 51.9934 93.6812 42.3789 98.9308 42.3789C104.18 42.3789 103.827 51.9934 98.8129 51.9934ZM97.4562 47.1567C97.4562 48.8082 97.9281 49.9879 98.8718 49.9879C99.8156 49.9879 100.287 48.9262 100.287 47.1567C100.287 45.5641 99.9336 44.3254 98.8718 44.3254C97.8691 44.3254 97.4562 45.6231 97.4562 47.1567ZM24.4336 67.9192C23.3129 67.9192 22.3101 68.686 22.0152 69.7477L21.0125 73.2867C20.5406 75.1153 20.0097 77.2387 19.6558 79.1262H19.5968C19.2429 77.2387 18.83 75.2332 18.3582 73.3457L17.4144 69.8656C17.1195 68.7449 16.1168 67.9781 14.9371 67.9781C13.5804 67.9781 12.4597 69.0399 12.4007 70.3965L11.6929 82.6063C11.634 83.4321 12.2828 84.1399 13.1086 84.1988H13.1675C13.9933 84.1988 14.6422 83.55 14.7011 82.7242L14.8781 78.0055C14.9961 76 15.055 73.4637 15.114 71.2813H15.173C15.5269 73.4047 15.9988 75.7051 16.4707 77.5926L17.7093 82.6063C17.8863 83.3731 18.5941 83.8449 19.3609 83.8449C20.1277 83.8449 20.7765 83.3731 20.9535 82.6063L22.3691 77.4746C22.959 75.5871 23.5488 73.2867 24.0207 71.2223H24.0797C24.0797 73.5817 24.1386 75.941 24.1976 77.8875L24.3746 82.5473C24.4336 83.4321 25.0824 84.0809 25.9672 84.0809C26.8519 84.0809 27.5597 83.3731 27.5597 82.4883V82.4293L26.9699 70.2785C26.9109 68.9809 25.7902 67.9192 24.4336 67.9192ZM36.6433 67.6832C32.3375 67.6832 29.5652 71.3403 29.5652 76.177C29.5652 80.7778 32.1015 84.4348 36.4074 84.4348C40.6543 84.4348 43.6035 81.1907 43.6035 75.8821C43.5445 71.3992 41.1261 67.6832 36.6433 67.6832ZM36.5843 81.4856C34.4019 81.4856 33.0453 79.2442 33.0453 76.059C33.0453 72.9328 34.3429 70.5735 36.5843 70.5735C38.8847 70.5735 40.1234 73.0508 40.1234 76C40.0644 79.1262 38.7668 81.4856 36.5843 81.4856ZM56.2851 67.9192C55.4593 67.9192 54.7515 68.627 54.7515 69.4528V72.6969C54.7515 74.9383 54.8105 77.2387 55.0465 79.4801H54.9875C54.2797 77.5926 53.5129 75.7051 52.6281 73.9356L50.2097 69.1578C49.8558 68.45 49.089 67.9781 48.3222 67.9781H47.9093C46.7297 67.9781 45.7859 68.9219 45.7859 70.1016V82.6653C45.7859 83.491 46.4937 84.1988 47.3195 84.1988C48.1453 84.1988 48.8531 83.491 48.8531 82.6653V79.3032C48.8531 76.6489 48.7941 74.3485 48.7351 72.225H48.7941C49.5019 74.1125 50.4457 76.236 51.3304 77.9465L53.8668 83.0192C54.2207 83.727 54.9875 84.1988 55.7543 84.1988C56.9339 84.1988 57.8777 83.2551 57.8777 82.0754V69.5117C57.8187 68.627 57.1109 67.9192 56.2851 67.9192ZM68.4949 81.1317H65.0738C64.484 81.1317 64.0121 80.6598 64.0121 80.0699V78.3594C64.0121 77.7696 64.484 77.2977 65.0738 77.2977H67.8461C68.6718 77.2977 69.3207 76.6488 69.3207 75.8231C69.3207 74.9973 68.6718 74.3485 67.8461 74.3485H65.0738C64.484 74.3485 64.0121 73.8766 64.0121 73.2867V72.1071C64.0121 71.5172 64.484 71.0453 65.0738 71.0453H68.2C69.0257 71.0453 69.6746 70.3965 69.6746 69.5707C69.6746 68.7449 69.0257 68.0961 68.2 68.0961H62.7144C61.5937 68.0961 60.709 68.9809 60.709 70.1016V82.2524C60.709 83.3731 61.5937 84.2578 62.7144 84.2578H68.4949C69.3207 84.2578 69.9695 83.609 69.9695 82.7832C69.9695 81.7805 69.3207 81.1317 68.4949 81.1317ZM81.1175 67.9192C80.4687 67.9192 79.8789 68.3321 79.6429 68.9219L78.5812 71.8121L78.1093 73.1688C77.9914 73.5227 77.5785 73.6996 77.2246 73.5817C77.0476 73.5227 76.8707 73.3457 76.8117 73.1688C76.6347 72.7559 76.5168 72.284 76.2808 71.8121L75.1601 68.9219C74.9242 68.3321 74.3343 67.9192 73.6855 67.9192H73.5675C72.6828 67.9192 71.975 68.627 71.975 69.5117C71.975 69.7477 72.034 69.9836 72.1519 70.2196L75.573 77.2977C75.632 77.4156 75.691 77.5926 75.691 77.7696V82.5473C75.691 83.4321 76.3988 84.1399 77.2836 84.1399H77.4015C78.2863 84.1399 78.9941 83.4321 78.9941 82.5473V77.6516C78.9941 77.4746 79.0531 77.2977 79.1121 77.1797L82.6511 70.2785C83.064 69.5117 82.7691 68.509 81.9433 68.1551C81.5894 67.9781 81.3535 67.9192 81.1175 67.9192ZM97.5742 75.4102C99.0488 74.8203 99.9926 73.4637 99.9926 71.8711C100.052 70.5735 99.3437 69.3348 98.223 68.686C97.1613 67.9781 95.9226 67.7422 93.9172 67.7422C93.1504 67.7422 92.3836 67.8012 91.6758 67.8012C90.555 67.8602 89.6703 68.8039 89.6703 69.9246V82.0164C89.6703 83.1371 90.5551 84.0809 91.7347 84.1399C92.2066 84.1399 92.6785 84.1988 93.2683 84.1988C96.1586 84.1988 97.9281 83.668 98.9898 82.7242C99.9925 81.8395 100.523 80.6008 100.523 79.3032C100.523 77.5336 99.3437 75.8821 97.5742 75.4102ZM92.9144 71.5762C92.9144 70.9864 93.3863 70.5145 93.9761 70.5145C94.0941 70.5145 94.2121 70.5145 94.33 70.5145C95.8047 70.5145 96.6894 71.1633 96.6894 72.402C96.6894 73.5817 95.7457 74.4074 94.0351 74.4074C93.4453 74.4074 92.9734 73.9356 92.9734 73.3457L92.9144 71.5762ZM94.2121 81.6035H94.0351C93.4453 81.6035 92.9734 81.1317 92.9734 80.5418V78.0645C92.9734 77.4746 93.4453 77.0028 94.0351 77.0028H94.0941C95.7457 77.0028 97.0433 77.6516 97.0433 79.3032C96.9844 80.9547 95.6867 81.6035 94.2121 81.6035ZM110.964 69.9836C110.61 68.7449 109.489 67.9192 108.25 67.9192C106.953 67.9192 105.832 68.8039 105.478 69.9836L102.175 82.0164C101.939 82.9012 102.47 83.786 103.296 84.0219C103.414 84.0809 103.591 84.0809 103.709 84.0809C104.475 84.0809 105.124 83.55 105.301 82.8422L105.832 80.7188C105.95 80.2469 106.363 79.893 106.894 79.893H109.371C109.843 79.893 110.315 80.2469 110.433 80.7188L111.023 82.9012C111.2 83.609 111.848 84.0809 112.615 84.0809H112.733C113.618 84.0809 114.385 83.3731 114.385 82.4293C114.385 82.2524 114.385 82.1344 114.326 82.0164L110.964 69.9836ZM109.253 77.2387H107.012C106.776 77.2387 106.599 77.0617 106.599 76.8258C106.599 76.7668 106.599 76.7668 106.599 76.7078L107.366 73.7586C107.484 73.2278 107.602 72.6379 107.778 71.9891C107.837 71.8121 107.955 71.6942 108.132 71.7532C108.25 71.7532 108.368 71.8711 108.368 71.9891L108.781 73.7586L109.548 76.7078C109.607 76.8848 109.489 77.1207 109.253 77.1797C109.312 77.2387 109.253 77.2387 109.253 77.2387ZM125.828 67.9192C125.12 67.7422 124.353 67.6832 123.586 67.6832C119.162 67.6832 115.623 70.7504 115.623 76.2949C115.623 80.8957 118.219 84.3758 123.291 84.3758C124.117 84.3758 124.884 84.3168 125.71 84.1399C126.477 83.9629 126.948 83.1961 126.83 82.4293C126.712 81.6035 125.946 81.0727 125.12 81.1907C124.707 81.2496 124.235 81.3086 123.763 81.3086C120.814 81.3086 119.103 79.2442 119.103 76C119.103 72.402 121.168 70.6324 123.763 70.6324C124.235 70.6324 124.707 70.6914 125.179 70.7504C125.946 70.9274 126.712 70.3965 126.889 69.6297V69.5707C127.066 68.8629 126.594 68.0961 125.828 67.9192ZM139.807 81.7215L136.386 75.4102C136.209 75.0563 136.209 74.5844 136.445 74.2895L139.04 70.5735C139.63 69.9246 139.512 68.9219 138.863 68.3321C138.686 68.1551 138.45 68.0961 138.214 68.0371C137.507 67.8012 136.74 68.0961 136.327 68.7449L133.496 73.3457C133.378 73.5227 133.201 73.6406 133.024 73.6406C132.729 73.6406 132.434 73.4047 132.434 73.0508V69.6297C132.434 68.7449 131.726 67.9781 130.782 67.9781C129.898 67.9781 129.131 68.686 129.131 69.6297V82.6063C129.131 83.491 129.839 84.2578 130.782 84.2578C131.667 84.2578 132.434 83.55 132.434 82.6063V79.3032C132.434 79.0672 132.493 78.8313 132.67 78.6543C133.024 78.1824 133.732 78.0645 134.203 78.4184C134.321 78.5364 134.439 78.6543 134.498 78.7723L136.799 83.3141C137.094 83.8449 137.625 84.1988 138.273 84.1988H138.391C139.276 84.1988 140.043 83.491 140.043 82.5473C140.043 82.2524 139.925 81.9574 139.807 81.7215ZM89.4343 50.8727L96.7484 36.3035C96.9254 35.8906 97.4562 35.7727 97.8101 35.9496C98.164 36.1266 98.341 36.5985 98.164 37.0114L90.85 51.5805C90.614 51.9344 90.1422 52.1114 89.7883 51.8754C89.3754 51.6985 89.2574 51.2856 89.4343 50.8727Z" fill="#0B1643"/>
</g>
<defs>
<linearGradient id="paint0_linear_73_11638" x1="26.276" y1="73.2375" x2="130.775" y2="86.3866" gradientUnits="userSpaceOnUse">
<stop stop-color="#0051FF"/>
<stop offset="0.079649" stop-color="#0065FF"/>
<stop offset="0.3115" stop-color="#009CFF"/>
<stop offset="0.5276" stop-color="#00C7FF"/>
<stop offset="0.7211" stop-color="#00E5FF"/>
<stop offset="0.8851" stop-color="#00F8FF"/>
<stop offset="1" stop-color="#00FFFF"/>
</linearGradient>
<clipPath id="clip0_73_11638">
<rect width="151" height="151" fill="white" transform="translate(0.25 0.5)"/>
</clipPath>
</defs>
</svg>
