<svg width="45" height="45" viewBox="0 0 45 45" fill="none" xmlns="http://www.w3.org/2000/svg">
<path fill-rule="evenodd" clip-rule="evenodd" d="M1.875 9.37524C1.875 7.8834 2.46763 6.45266 3.52252 5.39777C4.57742 4.34288 6.00816 3.75024 7.5 3.75024H15.8212C17.0755 3.75038 18.2937 4.16969 19.2823 4.94154C20.2709 5.7134 20.9731 6.79351 21.2775 8.01024L22.0913 11.2502H37.5C38.9918 11.2502 40.4226 11.8429 41.4775 12.8978C42.5324 13.9527 43.125 15.3834 43.125 16.8752V20.6252C43.125 21.1225 42.9275 21.5994 42.5758 21.9511C42.2242 22.3027 41.7473 22.5002 41.25 22.5002C40.7527 22.5002 40.2758 22.3027 39.9242 21.9511C39.5725 21.5994 39.375 21.1225 39.375 20.6252V16.8752C39.375 16.378 39.1775 15.901 38.8258 15.5494C38.4742 15.1978 37.9973 15.0002 37.5 15.0002H7.5C7.00272 15.0002 6.52581 15.1978 6.17417 15.5494C5.82254 15.901 5.625 16.378 5.625 16.8752V35.6252C5.625 36.1225 5.82254 36.5994 6.17417 36.9511C6.52581 37.3027 7.00272 37.5002 7.5 37.5002H16.875C17.3723 37.5002 17.8492 37.6978 18.2008 38.0494C18.5525 38.401 18.75 38.878 18.75 39.3752C18.75 39.8725 18.5525 40.3494 18.2008 40.7011C17.8492 41.0527 17.3723 41.2502 16.875 41.2502H7.5C6.00816 41.2502 4.57742 40.6576 3.52252 39.6027C2.46763 38.5478 1.875 37.1171 1.875 35.6252V9.37524ZM5.625 11.569C6.21188 11.3627 6.84375 11.2502 7.5 11.2502H18.225L17.6419 8.91962C17.5403 8.51416 17.3062 8.15426 16.9766 7.8971C16.6471 7.63994 16.2411 7.50025 15.8231 7.50024H7.5C7.00272 7.50024 6.52581 7.69779 6.17417 8.04942C5.82254 8.40105 5.625 8.87796 5.625 9.37524V11.569ZM37.8225 35.1696C39.1036 33.2315 39.6194 30.8867 39.27 28.5898C38.9205 26.2929 37.7306 24.2077 35.931 22.7383C34.1314 21.2689 31.8503 20.52 29.53 20.6369C27.2096 20.7538 25.0153 21.7281 23.3725 23.3709C21.7297 25.0137 20.7554 27.208 20.6385 29.5284C20.5216 31.8487 21.2705 34.1298 22.7399 35.9294C24.2093 37.729 26.2946 38.9189 28.5914 39.2683C30.8883 39.6178 33.2331 39.102 35.1712 37.8209L39.9244 42.5759C40.278 42.9174 40.7516 43.1064 41.2433 43.1021C41.7349 43.0979 42.2051 42.9007 42.5528 42.553C42.9004 42.2054 43.0976 41.7351 43.1019 41.2435C43.1062 40.7519 42.9172 40.2782 42.5756 39.9246L37.8225 35.1696ZM24.375 30.0002C24.375 28.5084 24.9676 27.0777 26.0225 26.0228C27.0774 24.9679 28.5082 24.3752 30 24.3752C31.4918 24.3752 32.9226 24.9679 33.9775 26.0228C35.0324 27.0777 35.625 28.5084 35.625 30.0002C35.625 31.4921 35.0324 32.9228 33.9775 33.9777C32.9226 35.0326 31.4918 35.6252 30 35.6252C28.5082 35.6252 27.0774 35.0326 26.0225 33.9777C24.9676 32.9228 24.375 31.4921 24.375 30.0002Z" fill="#2D9CDB"/>
</svg>
